<svg width="119" height="117" viewBox="0 0 119 117" fill="none" xmlns="http://www.w3.org/2000/svg">
<g clip-path="url(#clip0_61_458)">
<path fill-rule="evenodd" clip-rule="evenodd" d="M59.3227 0C26.5188 0 0 26.8125 0 59.9832C0 86.4983 16.9915 108.943 40.5632 116.887C43.5103 117.484 44.5898 115.596 44.5898 114.008C44.5898 112.617 44.4926 107.851 44.4926 102.884C27.9905 106.46 24.5541 95.734 24.5541 95.734C21.9021 88.7823 17.9726 86.9956 17.9726 86.9956C12.5715 83.3211 18.3661 83.3211 18.3661 83.3211C24.3574 83.7184 27.5011 89.4782 27.5011 89.4782C32.8039 98.6139 41.3489 96.0326 44.7865 94.4434C45.2771 90.5702 46.8496 87.8889 48.5192 86.3996C35.3576 85.009 21.5099 79.8452 21.5099 56.8047C21.5099 50.2503 23.8656 44.8878 27.5983 40.7172C27.0094 39.2279 24.9463 33.0696 28.1884 24.8272C28.1884 24.8272 33.1974 23.2379 44.4914 30.9843C49.3268 29.6713 54.3135 29.0033 59.3227 28.9977C64.3316 28.9977 69.4377 29.6936 74.1528 30.9843C85.4481 23.2379 90.457 24.8272 90.457 24.8272C93.6991 33.0696 91.6349 39.2279 91.0459 40.7172C94.877 44.8878 97.1356 50.2503 97.1356 56.8047C97.1356 79.8452 83.2879 84.9091 70.0279 86.3996C72.1893 88.2862 74.0544 91.8608 74.0544 97.5219C74.0544 105.566 73.9573 112.021 73.9573 114.007C73.9573 115.596 75.038 117.484 77.9839 116.888C101.556 108.942 118.547 86.4983 118.547 59.9832C118.644 26.8125 92.0283 0 59.3227 0Z" fill="white"/>
</g>
<defs>
<clipPath id="clip0_61_458">
<rect width="119" height="117" fill="white"/>
</clipPath>
</defs>
</svg>
