<svg width="1512" height="982" viewBox="0 0 1512 982" fill="none" xmlns="http://www.w3.org/2000/svg">
<rect width="1512" height="982" fill="#353535"/>
<rect width="1512" height="70" fill="white" fill-opacity="0.04"/>
<path d="M629.28 522.904V529.912H619.2V583H610.56V529.912H600.48V522.904H629.28ZM648.535 536.152H651.895C657.719 536.152 660.631 539 660.631 544.696V583H651.991V545.944C651.991 544.792 651.799 544.056 651.415 543.736C651.031 543.352 650.263 543.16 649.111 543.16H645.751C644.599 543.16 643.767 543.416 643.255 543.928C642.807 544.44 642.583 545.304 642.583 546.52V583H633.943V518.776H642.583V539.896C643.415 537.4 645.399 536.152 648.535 536.152ZM686.477 536.152H695.117V583H686.477V579.256C685.645 581.752 683.661 583 680.525 583H677.069C671.309 583 668.429 580.184 668.429 574.552V544.696C668.429 539 671.309 536.152 677.069 536.152H680.525C683.661 536.152 685.645 537.4 686.477 539.896V536.152ZM679.949 575.992H683.309C684.461 575.992 685.261 575.736 685.709 575.224C686.221 574.712 686.477 573.848 686.477 572.632V546.52C686.477 545.304 686.221 544.44 685.709 543.928C685.261 543.416 684.461 543.16 683.309 543.16H679.949C678.797 543.16 678.029 543.352 677.645 543.736C677.261 544.056 677.069 544.792 677.069 545.944V573.208C677.069 574.36 677.261 575.128 677.645 575.512C678.029 575.832 678.797 575.992 679.949 575.992ZM718.191 536.152H721.551C727.375 536.152 730.287 539 730.287 544.696V583H721.647V545.944C721.647 544.792 721.455 544.056 721.071 543.736C720.687 543.352 719.919 543.16 718.767 543.16H715.407C714.255 543.16 713.423 543.416 712.911 543.928C712.463 544.44 712.239 545.304 712.239 546.52V583H703.599V536.152H712.239V539.896C713.071 537.4 715.055 536.152 718.191 536.152ZM768.422 536.152L757.67 558.52L768.422 583H759.206L748.838 558.52L759.206 536.152H768.422ZM738.662 583V518.776H747.302V583H738.662ZM793.761 596.248H788.001V589.336H791.937C794.689 589.336 796.353 588.28 796.929 586.168L797.889 582.232H793.185L783.393 536.152H792.225L799.329 575.416L805.953 536.152H814.689L804.801 587.512C803.393 593.336 799.713 596.248 793.761 596.248ZM828.014 536.152H838.286C844.238 536.152 847.214 539 847.214 544.696V574.552C847.214 580.184 844.238 583 838.286 583H828.014C822.126 583 819.182 580.184 819.182 574.552V544.696C819.182 539 822.126 536.152 828.014 536.152ZM838.67 573.304V545.848C838.67 544.696 838.478 543.928 838.094 543.544C837.71 543.16 836.942 542.968 835.79 542.968H830.51C829.358 542.968 828.59 543.16 828.206 543.544C827.886 543.928 827.726 544.696 827.726 545.848V573.304C827.726 574.456 827.886 575.224 828.206 575.608C828.59 575.992 829.358 576.184 830.51 576.184H835.79C836.942 576.184 837.71 575.992 838.094 575.608C838.478 575.224 838.67 574.456 838.67 573.304ZM873.145 536.152H881.785V583H873.145V579.256C872.313 581.752 870.329 583 867.193 583H863.737C857.977 583 855.097 580.184 855.097 574.552V536.152H863.737V573.208C863.737 574.36 863.929 575.128 864.313 575.512C864.697 575.832 865.465 575.992 866.617 575.992H869.977C871.129 575.992 871.929 575.736 872.377 575.224C872.889 574.712 873.145 573.848 873.145 572.632V536.152Z" fill="white"/>
<path d="M1424.67 91.904H1433.41V143.552C1433.41 149.184 1430.4 152 1424.38 152H1413.73C1407.71 152 1404.7 149.184 1404.7 143.552V91.904H1413.44V142.208C1413.44 143.36 1413.63 144.128 1414.02 144.512C1414.4 144.832 1415.17 144.992 1416.32 144.992H1421.79C1423.01 144.992 1423.78 144.832 1424.1 144.512C1424.48 144.128 1424.67 143.36 1424.67 142.208V91.904ZM1443.15 91.904H1462.83C1468.78 91.904 1471.76 94.72 1471.76 100.352V120.32C1471.76 125.952 1468.78 128.768 1462.83 128.768H1451.79V152H1443.15V91.904ZM1463.12 118.976V101.696C1463.12 100.544 1462.92 99.808 1462.54 99.488C1462.16 99.104 1461.39 98.912 1460.24 98.912H1451.79V121.856H1460.24C1461.39 121.856 1462.16 121.664 1462.54 121.28C1462.92 120.896 1463.12 120.128 1463.12 118.976Z" fill="white"/>
<rect width="1512" height="70" fill="white" fill-opacity="0.04"/>
<path fill-rule="evenodd" clip-rule="evenodd" d="M1305.16 31.8571C1305.16 23.6518 1298.23 17 1289.68 17C1281.14 17 1274.21 23.6518 1274.21 31.8571C1274.21 40.0625 1281.14 46.7143 1289.68 46.7143C1293.21 46.7143 1296.46 45.5833 1299.06 43.6818L1310.24 54.4142C1311.05 55.1953 1312.37 55.1953 1313.18 54.4142C1314 53.6332 1314 52.3668 1313.18 51.5858L1302 40.8533C1303.98 38.3571 1305.16 35.2379 1305.16 31.8571ZM1289.68 21C1295.93 21 1300.99 25.8609 1300.99 31.8571C1300.99 34.8558 1299.73 37.5674 1297.68 39.5343C1295.63 41.5012 1292.81 42.7143 1289.68 42.7143C1283.44 42.7143 1278.38 37.8534 1278.38 31.8571C1278.38 25.8609 1283.44 21 1289.68 21Z" fill="white"/>
<path fill-rule="evenodd" clip-rule="evenodd" d="M1437.26 21.7416C1434.82 19.3009 1430.86 19.3009 1428.42 21.7416L1421.79 28.3708C1419.35 30.8115 1419.35 34.7688 1421.79 37.2096C1422.6 38.0232 1422.6 39.3423 1421.79 40.1559C1420.98 40.9695 1419.66 40.9695 1418.84 40.1559C1414.78 36.0879 1414.78 29.4924 1418.84 25.4245L1425.47 18.7954C1429.54 14.7274 1436.14 14.7274 1440.2 18.7954C1444.27 22.8633 1444.27 29.4588 1440.2 33.5267C1439.39 34.3403 1438.07 34.3403 1437.26 33.5267C1436.44 32.7132 1436.44 31.3941 1437.26 30.5805C1439.7 28.1397 1439.7 24.1824 1437.26 21.7416ZM1426.21 29.8439C1427.02 29.0303 1428.34 29.0303 1429.16 29.8439C1433.22 33.9119 1433.22 40.5073 1429.16 44.5753L1422.53 51.2044C1418.46 55.2724 1411.86 55.2724 1407.8 51.2044C1403.73 47.1365 1403.73 40.541 1407.8 36.473C1408.61 35.6594 1409.93 35.6594 1410.74 36.473C1411.56 37.2866 1411.56 38.6057 1410.74 39.4193C1408.3 41.8601 1408.3 45.8174 1410.74 48.2581C1413.18 50.6989 1417.14 50.6989 1419.58 48.2581L1426.21 41.629C1428.65 39.1882 1428.65 35.231 1426.21 32.7902C1425.4 31.9766 1425.4 30.6575 1426.21 29.8439Z" fill="white"/>
<rect x="871" y="17" width="374" height="39" rx="19.5" fill="white" fill-opacity="0.03"/>
<rect x="871.5" y="17.5" width="373" height="38" rx="19" stroke="white" stroke-opacity="0.11"/>
<path d="M46.616 897.192H50.968V931.944C50.968 935.315 49.2827 937 45.912 937H39.384C36.0133 937 34.328 935.315 34.328 931.944V897.192H38.68V931.24C38.68 932.093 38.808 932.648 39.064 932.904C39.32 933.117 39.8533 933.224 40.664 933.224H44.632C45.4427 933.224 45.976 933.117 46.232 932.904C46.488 932.648 46.616 932.093 46.616 931.24V897.192ZM65.1285 905.96H67.6885C71.0592 905.96 72.7445 907.645 72.7445 911.016V931.944C72.7445 935.315 71.0592 937 67.6885 937H65.1285C63.2512 937 62.0778 936.296 61.6085 934.888V946.024H57.1925V905.96H61.6085V908.072C62.0778 906.664 63.2512 905.96 65.1285 905.96ZM68.3285 931.24V911.72C68.3285 910.909 68.2005 910.376 67.9445 910.12C67.7312 909.864 67.1978 909.736 66.3445 909.736H63.7845C63.0165 909.736 62.4618 909.907 62.1205 910.248C61.7792 910.589 61.6085 911.187 61.6085 912.04V930.92C61.6085 931.773 61.7792 932.371 62.1205 932.712C62.4618 933.053 63.0165 933.224 63.7845 933.224H66.3445C67.1978 933.224 67.7312 933.117 67.9445 932.904C68.2005 932.648 68.3285 932.093 68.3285 931.24ZM89.0085 894.184H93.4245V937H89.0085V934.888C88.5392 936.296 87.3658 937 85.4885 937H82.9285C79.5578 937 77.8725 935.315 77.8725 931.944V910.952C77.8725 907.581 79.5578 905.896 82.9285 905.896H85.4885C87.3658 905.896 88.5392 906.6 89.0085 908.008V894.184ZM84.2725 933.224H86.8325C87.6005 933.224 88.1552 933.053 88.4965 932.712C88.8378 932.371 89.0085 931.773 89.0085 930.92V911.976C89.0085 911.123 88.8378 910.525 88.4965 910.184C88.1552 909.843 87.6005 909.672 86.8325 909.672H84.2725C83.4192 909.672 82.8645 909.8 82.6085 910.056C82.3952 910.269 82.2885 910.803 82.2885 911.656V931.24C82.2885 932.093 82.3952 932.648 82.6085 932.904C82.8645 933.117 83.4192 933.224 84.2725 933.224ZM110.009 905.96H114.425V937H110.009V934.888C109.539 936.296 108.366 937 106.489 937H103.929C100.558 937 98.8725 935.315 98.8725 931.944V911.016C98.8725 907.645 100.558 905.96 103.929 905.96H106.489C108.366 905.96 109.539 906.664 110.009 908.072V905.96ZM105.273 933.224H107.833C108.601 933.224 109.155 933.053 109.497 932.712C109.838 932.371 110.009 931.773 110.009 930.92V912.04C110.009 911.187 109.838 910.589 109.497 910.248C109.155 909.907 108.601 909.736 107.833 909.736H105.273C104.419 909.736 103.865 909.864 103.609 910.12C103.395 910.376 103.289 910.909 103.289 911.72V931.24C103.289 932.093 103.395 932.648 103.609 932.904C103.865 933.117 104.419 933.224 105.273 933.224ZM129.281 909.736H124.865V930.92C124.865 931.731 124.993 932.264 125.249 932.52C125.505 932.776 126.038 932.904 126.849 932.904H129.281V937H125.505C122.134 937 120.449 935.315 120.449 931.944V909.736H117.633V905.96H120.449V900.904H124.865V905.96H129.281V909.736ZM137.874 905.96H143.762C147.132 905.96 148.818 907.645 148.818 911.016V922.984H137.234V931.24C137.234 932.093 137.362 932.648 137.618 932.904C137.874 933.117 138.407 933.224 139.218 933.224H142.226C143.079 933.224 143.612 933.117 143.826 932.904C144.082 932.648 144.21 932.093 144.21 931.24V928.424H148.626V931.944C148.626 935.315 146.94 937 143.57 937H137.874C134.503 937 132.818 935.315 132.818 931.944V911.016C132.818 907.645 134.503 905.96 137.874 905.96ZM137.234 919.208H144.402V911.72C144.402 910.909 144.274 910.376 144.018 910.12C143.762 909.864 143.228 909.736 142.418 909.736H139.218C138.407 909.736 137.874 909.864 137.618 910.12C137.362 910.376 137.234 910.909 137.234 911.72V919.208ZM164.759 894.184H169.175V937H164.759V934.888C164.289 936.296 163.116 937 161.239 937H158.679C155.308 937 153.623 935.315 153.623 931.944V910.952C153.623 907.581 155.308 905.896 158.679 905.896H161.239C163.116 905.896 164.289 906.6 164.759 908.008V894.184ZM160.023 933.224H162.583C163.351 933.224 163.905 933.053 164.247 932.712C164.588 932.371 164.759 931.773 164.759 930.92V911.976C164.759 911.123 164.588 910.525 164.247 910.184C163.905 909.843 163.351 909.672 162.583 909.672H160.023C159.169 909.672 158.615 909.8 158.359 910.056C158.145 910.269 158.039 910.803 158.039 911.656V931.24C158.039 932.093 158.145 932.648 158.359 932.904C158.615 933.117 159.169 933.224 160.023 933.224ZM186.327 902.952V909.992H181.975V902.248C181.975 898.877 183.66 897.192 187.031 897.192H191.959C195.33 897.192 197.015 898.877 197.015 902.248V905.768C197.015 908.712 196.46 911.485 195.351 914.088L186.583 933.224H197.335V937H182.039V933.288L191.127 913.384C192.108 911.08 192.599 908.456 192.599 905.512V902.952C192.599 902.099 192.471 901.565 192.215 901.352C192.002 901.096 191.468 900.968 190.615 900.968H188.311C187.458 900.968 186.903 901.096 186.647 901.352C186.434 901.565 186.327 902.099 186.327 902.952ZM214.426 931.24V902.952C214.426 902.099 214.298 901.565 214.042 901.352C213.786 901.096 213.252 900.968 212.442 900.968H208.538C207.684 900.968 207.13 901.096 206.874 901.352C206.66 901.565 206.554 902.099 206.554 902.952V931.24C206.554 932.093 206.66 932.648 206.874 932.904C207.13 933.117 207.684 933.224 208.538 933.224H212.442C213.252 933.224 213.786 933.117 214.042 932.904C214.298 932.648 214.426 932.093 214.426 931.24ZM218.842 902.248V931.944C218.842 935.315 217.156 937 213.786 937H207.194C203.823 937 202.138 935.315 202.138 931.944V902.248C202.138 898.877 203.823 897.192 207.194 897.192H213.786C217.156 897.192 218.842 898.877 218.842 902.248ZM228.015 902.952V909.992H223.663V902.248C223.663 898.877 225.348 897.192 228.719 897.192H233.647C237.017 897.192 238.703 898.877 238.703 902.248V905.768C238.703 908.712 238.148 911.485 237.039 914.088L228.271 933.224H239.023V937H223.727V933.288L232.815 913.384C233.796 911.08 234.287 908.456 234.287 905.512V902.952C234.287 902.099 234.159 901.565 233.903 901.352C233.689 901.096 233.156 900.968 232.303 900.968H229.999C229.145 900.968 228.591 901.096 228.335 901.352C228.121 901.565 228.015 902.099 228.015 902.952ZM261.425 925.096V928.872H258.033V937H253.809V928.872H240.945V925.48L251.441 897.192H255.729L245.425 925.096H253.809V917.544H258.033V925.096H261.425ZM264.958 920.168V916.456H277.502V920.168H264.958ZM291.047 897.192V937H286.695V900.968H282.343V897.192H291.047ZM298.083 920.168V916.456H310.627V920.168H298.083ZM324.172 897.192V937H319.82V900.968H315.468V897.192H324.172ZM343.176 931.24V902.952C343.176 902.099 343.048 901.565 342.792 901.352C342.536 901.096 342.002 900.968 341.192 900.968H337.288C336.434 900.968 335.88 901.096 335.624 901.352C335.41 901.565 335.304 902.099 335.304 902.952V931.24C335.304 932.093 335.41 932.648 335.624 932.904C335.88 933.117 336.434 933.224 337.288 933.224H341.192C342.002 933.224 342.536 933.117 342.792 932.904C343.048 932.648 343.176 932.093 343.176 931.24ZM347.592 902.248V931.944C347.592 935.315 345.906 937 342.536 937H335.944C332.573 937 330.888 935.315 330.888 931.944V902.248C330.888 898.877 332.573 897.192 335.944 897.192H342.536C345.906 897.192 347.592 898.877 347.592 902.248Z" fill="white"/>
<path d="M399.768 218.904H408.504L398.904 279H386.904L380.184 233.88L373.56 279H361.56L351.96 218.904H360.888L367.608 271.128L375.384 218.904H384.984L392.76 271.128L399.768 218.904ZM422.46 232.152H431.868C437.884 232.152 440.892 235 440.892 240.696V258.264H421.98V269.4C421.98 270.488 422.172 271.224 422.556 271.608C422.94 271.992 423.708 272.184 424.86 272.184H429.276C430.428 272.184 431.196 271.992 431.58 271.608C431.964 271.224 432.156 270.456 432.156 269.304V265.464H440.604V270.552C440.604 276.184 437.628 279 431.676 279H422.46C416.508 279 413.532 276.184 413.532 270.552V240.696C413.532 235 416.508 232.152 422.46 232.152ZM421.98 251.928H432.348V241.752C432.348 240.664 432.156 239.928 431.772 239.544C431.452 239.16 430.716 238.968 429.564 238.968H424.86C423.708 238.968 422.94 239.16 422.556 239.544C422.172 239.928 421.98 240.664 421.98 241.752V251.928ZM456.958 279H448.318V214.776H456.958V279ZM491.876 246.936H483.332V241.944C483.332 240.792 483.14 240.056 482.756 239.736C482.372 239.352 481.604 239.16 480.452 239.16H476.324C475.172 239.16 474.404 239.352 474.02 239.736C473.636 240.056 473.444 240.792 473.444 241.944V269.208C473.444 270.36 473.636 271.128 474.02 271.512C474.404 271.832 475.172 271.992 476.324 271.992H480.452C481.604 271.992 482.372 271.832 482.756 271.512C483.14 271.128 483.332 270.36 483.332 269.208V264.216H491.876V270.552C491.876 276.184 488.868 279 482.852 279H473.732C467.78 279 464.804 276.184 464.804 270.552V240.696C464.804 235 467.78 232.152 473.732 232.152H482.852C488.868 232.152 491.876 235 491.876 240.696V246.936ZM507.389 232.152H517.661C523.613 232.152 526.589 235 526.589 240.696V270.552C526.589 276.184 523.613 279 517.661 279H507.389C501.501 279 498.557 276.184 498.557 270.552V240.696C498.557 235 501.501 232.152 507.389 232.152ZM518.045 269.304V241.848C518.045 240.696 517.853 239.928 517.469 239.544C517.085 239.16 516.317 238.968 515.165 238.968H509.885C508.733 238.968 507.965 239.16 507.581 239.544C507.261 239.928 507.101 240.696 507.101 241.848V269.304C507.101 270.456 507.261 271.224 507.581 271.608C507.965 271.992 508.733 272.184 509.885 272.184H515.165C516.317 272.184 517.085 271.992 517.469 271.608C517.853 271.224 518.045 270.456 518.045 269.304ZM567.208 232.152H570.568C576.328 232.152 579.208 235 579.208 240.696V279H570.568V241.944C570.568 240.792 570.376 240.056 569.992 239.736C569.672 239.352 568.936 239.16 567.784 239.16H564.328C562.28 239.16 561.256 240.28 561.256 242.52V279H552.616V241.944C552.616 240.792 552.424 240.056 552.04 239.736C551.656 239.352 550.888 239.16 549.736 239.16H546.376C545.224 239.16 544.392 239.416 543.88 239.928C543.432 240.44 543.208 241.304 543.208 242.52V279H534.568V232.152H543.208V235.896C544.04 233.4 546.024 232.152 549.16 232.152H552.52C556.616 232.152 559.272 233.592 560.488 236.472C561.256 233.592 563.496 232.152 567.208 232.152ZM595.898 232.152H605.306C611.322 232.152 614.33 235 614.33 240.696V258.264H595.418V269.4C595.418 270.488 595.61 271.224 595.994 271.608C596.378 271.992 597.146 272.184 598.298 272.184H602.714C603.866 272.184 604.634 271.992 605.018 271.608C605.402 271.224 605.594 270.456 605.594 269.304V265.464H614.042V270.552C614.042 276.184 611.066 279 605.114 279H595.898C589.946 279 586.97 276.184 586.97 270.552V240.696C586.97 235 589.946 232.152 595.898 232.152ZM595.418 251.928H605.786V241.752C605.786 240.664 605.594 239.928 605.21 239.544C604.89 239.16 604.154 238.968 603.002 238.968H598.298C597.146 238.968 596.378 239.16 595.994 239.544C595.61 239.928 595.418 240.664 595.418 241.752V251.928ZM651.47 239.16H645.038V268.824C645.038 269.976 645.198 270.744 645.518 271.128C645.902 271.448 646.67 271.608 647.822 271.608H651.47V279H645.326C639.31 279 636.302 276.184 636.302 270.552V239.16H631.886V232.152H636.302V224.184H645.038V232.152H651.47V239.16ZM664.982 232.152H675.254C681.206 232.152 684.182 235 684.182 240.696V270.552C684.182 276.184 681.206 279 675.254 279H664.982C659.094 279 656.15 276.184 656.15 270.552V240.696C656.15 235 659.094 232.152 664.982 232.152ZM675.638 269.304V241.848C675.638 240.696 675.446 239.928 675.062 239.544C674.678 239.16 673.91 238.968 672.758 238.968H667.478C666.326 238.968 665.558 239.16 665.174 239.544C664.854 239.928 664.694 240.696 664.694 241.848V269.304C664.694 270.456 664.854 271.224 665.174 271.608C665.558 271.992 666.326 272.184 667.478 272.184H672.758C673.91 272.184 674.678 271.992 675.062 271.608C675.446 271.224 675.638 270.456 675.638 269.304ZM719.381 218.904V279H710.645V225.912H703.733V218.904H719.381ZM748.598 269.208V228.696C748.598 227.544 748.406 226.808 748.022 226.488C747.638 226.104 746.87 225.912 745.718 225.912H740.534C739.382 225.912 738.614 226.104 738.23 226.488C737.91 226.808 737.75 227.544 737.75 228.696V269.208C737.75 270.36 737.91 271.128 738.23 271.512C738.614 271.832 739.382 271.992 740.534 271.992H745.718C746.87 271.992 747.638 271.832 748.022 271.512C748.406 271.128 748.598 270.36 748.598 269.208ZM757.334 227.352V270.552C757.334 276.184 754.358 279 748.406 279H737.942C731.926 279 728.918 276.184 728.918 270.552V227.352C728.918 221.72 731.926 218.904 737.942 218.904H748.406C754.358 218.904 757.334 221.72 757.334 227.352ZM786.005 269.208V228.696C786.005 227.544 785.813 226.808 785.429 226.488C785.045 226.104 784.277 225.912 783.125 225.912H777.941C776.789 225.912 776.021 226.104 775.637 226.488C775.317 226.808 775.157 227.544 775.157 228.696V269.208C775.157 270.36 775.317 271.128 775.637 271.512C776.021 271.832 776.789 271.992 777.941 271.992H783.125C784.277 271.992 785.045 271.832 785.429 271.512C785.813 271.128 786.005 270.36 786.005 269.208ZM794.741 227.352V270.552C794.741 276.184 791.765 279 785.812 279H775.349C769.333 279 766.325 276.184 766.325 270.552V227.352C766.325 221.72 769.333 218.904 775.349 218.904H785.812C791.765 218.904 794.741 221.72 794.741 227.352ZM812.371 244.44H822.931C828.883 244.44 831.859 247.288 831.859 252.984V270.552C831.859 276.184 828.883 279 822.931 279H812.755C806.739 279 803.731 276.184 803.731 270.552V227.352C803.731 221.72 806.739 218.904 812.755 218.904H822.643C828.595 218.904 831.571 221.72 831.571 227.352V237.72H823.027V228.696C823.027 227.544 822.835 226.808 822.451 226.488C822.067 226.104 821.299 225.912 820.147 225.912H815.251C814.099 225.912 813.331 226.104 812.947 226.488C812.563 226.808 812.371 227.544 812.371 228.696V244.44ZM823.219 269.208V254.136C823.219 253.048 823.027 252.312 822.643 251.928C822.259 251.544 821.491 251.352 820.339 251.352H812.371V269.208C812.371 270.36 812.563 271.128 812.947 271.512C813.331 271.832 814.099 271.992 815.251 271.992H820.339C821.491 271.992 822.259 271.832 822.643 271.512C823.027 271.128 823.219 270.36 823.219 269.208ZM848.739 279H840.099V214.776H848.739V279ZM865.898 232.152H875.306C881.322 232.152 884.33 235 884.33 240.696V258.264H865.418V269.4C865.418 270.488 865.61 271.224 865.994 271.608C866.378 271.992 867.146 272.184 868.298 272.184H872.714C873.866 272.184 874.634 271.992 875.018 271.608C875.402 271.224 875.594 270.456 875.594 269.304V265.464H884.042V270.552C884.042 276.184 881.066 279 875.114 279H865.898C859.946 279 856.97 276.184 856.97 270.552V240.696C856.97 235 859.946 232.152 865.898 232.152ZM865.418 251.928H875.786V241.752C875.786 240.664 875.594 239.928 875.21 239.544C874.89 239.16 874.154 238.968 873.002 238.968H868.298C867.146 238.968 866.378 239.16 865.994 239.544C865.61 239.928 865.418 240.664 865.418 241.752V251.928ZM924.395 232.152H927.755C933.515 232.152 936.395 235 936.395 240.696V279H927.755V241.944C927.755 240.792 927.563 240.056 927.179 239.736C926.859 239.352 926.123 239.16 924.971 239.16H921.515C919.467 239.16 918.443 240.28 918.443 242.52V279H909.803V241.944C909.803 240.792 909.611 240.056 909.227 239.736C908.843 239.352 908.075 239.16 906.923 239.16H903.563C902.411 239.16 901.579 239.416 901.067 239.928C900.619 240.44 900.395 241.304 900.395 242.52V279H891.755V232.152H900.395V235.896C901.227 233.4 903.211 232.152 906.347 232.152H909.707C913.803 232.152 916.459 233.592 917.675 236.472C918.443 233.592 920.683 232.152 924.395 232.152ZM943.197 218.904H952.893V225.144L946.173 244.056H943.197V218.904ZM975.935 269.592V261.816C975.935 260.664 975.743 259.928 975.359 259.608C974.975 259.224 974.207 259.032 973.055 259.032H968.159C962.207 259.032 959.23 256.216 959.23 250.584V240.696C959.23 235 962.207 232.152 968.159 232.152H975.167C981.183 232.152 984.191 235 984.191 240.696V245.208H975.743V241.56C975.743 240.408 975.551 239.672 975.167 239.352C974.783 238.968 974.015 238.776 972.863 238.776H970.559C969.407 238.776 968.639 238.968 968.255 239.352C967.871 239.672 967.679 240.408 967.679 241.56V249.624C967.679 250.776 967.871 251.544 968.255 251.928C968.639 252.248 969.407 252.408 970.559 252.408H975.551C981.439 252.408 984.383 255.256 984.383 260.952V270.552C984.383 276.184 981.407 279 975.455 279H968.351C962.399 279 959.423 276.184 959.423 270.552V265.944H967.871V269.592C967.871 270.744 968.063 271.512 968.447 271.896C968.831 272.216 969.599 272.376 970.751 272.376H973.055C974.207 272.376 974.975 272.216 975.359 271.896C975.743 271.512 975.935 270.744 975.935 269.592ZM1027.55 242.232V228.504C1027.55 227.352 1027.36 226.616 1026.97 226.296C1026.59 225.912 1025.82 225.72 1024.67 225.72H1015.07V245.016H1024.67C1025.82 245.016 1026.59 244.856 1026.97 244.536C1027.36 244.152 1027.55 243.384 1027.55 242.232ZM1027.55 269.4V254.616C1027.55 253.464 1027.36 252.728 1026.97 252.408C1026.59 252.024 1025.82 251.832 1024.67 251.832H1015.07V272.184H1024.67C1025.82 272.184 1026.59 272.024 1026.97 271.704C1027.36 271.32 1027.55 270.552 1027.55 269.4ZM1006.43 218.904H1027.26C1033.28 218.904 1036.29 221.72 1036.29 227.352V242.616C1036.29 246.008 1035.01 247.992 1032.45 248.568C1035.01 249.208 1036.29 251.064 1036.29 254.136V270.552C1036.29 276.184 1033.28 279 1027.26 279H1006.43V218.904ZM1053.58 279H1044.94V214.776H1053.58V279ZM1070.36 232.152H1080.63C1086.58 232.152 1089.56 235 1089.56 240.696V270.552C1089.56 276.184 1086.58 279 1080.63 279H1070.36C1064.47 279 1061.53 276.184 1061.53 270.552V240.696C1061.53 235 1064.47 232.152 1070.36 232.152ZM1081.01 269.304V241.848C1081.01 240.696 1080.82 239.928 1080.44 239.544C1080.05 239.16 1079.29 238.968 1078.13 238.968H1072.85C1071.7 238.968 1070.93 239.16 1070.55 239.544C1070.23 239.928 1070.07 240.696 1070.07 241.848V269.304C1070.07 270.456 1070.23 271.224 1070.55 271.608C1070.93 271.992 1071.7 272.184 1072.85 272.184H1078.13C1079.29 272.184 1080.05 271.992 1080.44 271.608C1080.82 271.224 1081.01 270.456 1081.01 269.304ZM1115.01 232.152H1123.65V283.8C1123.65 289.432 1120.64 292.248 1114.62 292.248H1098.59V285.432H1112.13C1113.28 285.432 1114.05 285.24 1114.43 284.856C1114.82 284.472 1115.01 283.736 1115.01 282.648V274.68C1114.18 277.176 1112.19 278.424 1109.06 278.424H1105.6C1099.84 278.424 1096.96 275.576 1096.96 269.88V240.696C1096.96 235 1099.84 232.152 1105.6 232.152H1109.06C1112.19 232.152 1114.18 233.4 1115.01 235.896V232.152ZM1108.48 271.416H1111.84C1112.99 271.416 1113.79 271.16 1114.24 270.648C1114.75 270.136 1115.01 269.272 1115.01 268.056V242.52C1115.01 241.304 1114.75 240.44 1114.24 239.928C1113.79 239.416 1112.99 239.16 1111.84 239.16H1108.48C1107.33 239.16 1106.56 239.352 1106.18 239.736C1105.79 240.056 1105.6 240.792 1105.6 241.944V268.632C1105.6 269.72 1105.79 270.456 1106.18 270.84C1106.56 271.224 1107.33 271.416 1108.48 271.416ZM1132.99 279V267.192H1142.69V279H1132.99ZM1132.71 218.904H1143.17L1141.54 259.416H1134.34L1132.71 218.904Z" fill="white"/>
<path d="M660.588 318.464V341H657.312V321.092H654.72V318.464H660.588ZM671.545 337.328V322.136C671.545 321.704 671.473 321.428 671.329 321.308C671.185 321.164 670.897 321.092 670.465 321.092H668.521C668.089 321.092 667.801 321.164 667.657 321.308C667.537 321.428 667.477 321.704 667.477 322.136V337.328C667.477 337.76 667.537 338.048 667.657 338.192C667.801 338.312 668.089 338.372 668.521 338.372H670.465C670.897 338.372 671.185 338.312 671.329 338.192C671.473 338.048 671.545 337.76 671.545 337.328ZM674.821 321.632V337.832C674.821 339.944 673.705 341 671.473 341H667.549C665.293 341 664.165 339.944 664.165 337.832V321.632C664.165 319.52 665.293 318.464 667.549 318.464H671.473C673.705 318.464 674.821 319.52 674.821 321.632ZM685.572 337.328V322.136C685.572 321.704 685.5 321.428 685.356 321.308C685.212 321.164 684.924 321.092 684.492 321.092H682.548C682.116 321.092 681.828 321.164 681.684 321.308C681.564 321.428 681.504 321.704 681.504 322.136V337.328C681.504 337.76 681.564 338.048 681.684 338.192C681.828 338.312 682.116 338.372 682.548 338.372H684.492C684.924 338.372 685.212 338.312 685.356 338.192C685.5 338.048 685.572 337.76 685.572 337.328ZM688.848 321.632V337.832C688.848 339.944 687.732 341 685.5 341H681.576C679.32 341 678.192 339.944 678.192 337.832V321.632C678.192 319.52 679.32 318.464 681.576 318.464H685.5C687.732 318.464 688.848 319.52 688.848 321.632ZM695.459 328.04H699.419C701.651 328.04 702.767 329.108 702.767 331.244V337.832C702.767 339.944 701.651 341 699.419 341H695.603C693.347 341 692.219 339.944 692.219 337.832V321.632C692.219 319.52 693.347 318.464 695.603 318.464H699.311C701.543 318.464 702.659 319.52 702.659 321.632V325.52H699.455V322.136C699.455 321.704 699.383 321.428 699.239 321.308C699.095 321.164 698.807 321.092 698.375 321.092H696.539C696.107 321.092 695.819 321.164 695.675 321.308C695.531 321.428 695.459 321.704 695.459 322.136V328.04ZM699.527 337.328V331.676C699.527 331.268 699.455 330.992 699.311 330.848C699.167 330.704 698.879 330.632 698.447 330.632H695.459V337.328C695.459 337.76 695.531 338.048 695.675 338.192C695.819 338.312 696.107 338.372 696.539 338.372H698.447C698.879 338.372 699.167 338.312 699.311 338.192C699.455 338.048 699.527 337.76 699.527 337.328ZM709.097 341H705.857V316.916H709.097V341ZM715.532 323.432H719.06C721.316 323.432 722.444 324.5 722.444 326.636V333.224H715.352V337.4C715.352 337.808 715.424 338.084 715.568 338.228C715.712 338.372 716 338.444 716.432 338.444H718.088C718.52 338.444 718.808 338.372 718.952 338.228C719.096 338.084 719.168 337.796 719.168 337.364V335.924H722.336V337.832C722.336 339.944 721.22 341 718.988 341H715.532C713.3 341 712.184 339.944 712.184 337.832V326.636C712.184 324.5 713.3 323.432 715.532 323.432ZM715.352 330.848H719.24V327.032C719.24 326.624 719.168 326.348 719.024 326.204C718.904 326.06 718.628 325.988 718.196 325.988H716.432C716 325.988 715.712 326.06 715.568 326.204C715.424 326.348 715.352 326.624 715.352 327.032V330.848ZM737.469 323.432H738.729C740.889 323.432 741.969 324.5 741.969 326.636V341H738.729V327.104C738.729 326.672 738.657 326.396 738.513 326.276C738.393 326.132 738.117 326.06 737.685 326.06H736.389C735.621 326.06 735.237 326.48 735.237 327.32V341H731.997V327.104C731.997 326.672 731.925 326.396 731.781 326.276C731.637 326.132 731.349 326.06 730.917 326.06H729.657C729.225 326.06 728.913 326.156 728.721 326.348C728.553 326.54 728.469 326.864 728.469 327.32V341H725.229V323.432H728.469V324.836C728.781 323.9 729.525 323.432 730.701 323.432H731.961C733.497 323.432 734.493 323.972 734.949 325.052C735.237 323.972 736.077 323.432 737.469 323.432ZM750.514 314.252H753.646V345.248H750.514V314.252ZM769.011 323.432H772.251V342.8C772.251 344.912 771.123 345.968 768.867 345.968H762.855V343.412H767.931C768.363 343.412 768.651 343.34 768.795 343.196C768.939 343.052 769.011 342.776 769.011 342.368V339.38C768.699 340.316 767.955 340.784 766.779 340.784H765.483C763.323 340.784 762.243 339.716 762.243 337.58V326.636C762.243 324.5 763.323 323.432 765.483 323.432H766.779C767.955 323.432 768.699 323.9 769.011 324.836V323.432ZM766.563 338.156H767.823C768.255 338.156 768.555 338.06 768.723 337.868C768.915 337.676 769.011 337.352 769.011 336.896V327.32C769.011 326.864 768.915 326.54 768.723 326.348C768.555 326.156 768.255 326.06 767.823 326.06H766.563C766.131 326.06 765.843 326.132 765.699 326.276C765.555 326.396 765.483 326.672 765.483 327.104V337.112C765.483 337.52 765.555 337.796 765.699 337.94C765.843 338.084 766.131 338.156 766.563 338.156ZM775.36 320.084V316.88H778.744V320.084H775.36ZM778.672 341H775.432V323.432H778.672V341ZM787.77 326.06H785.358V337.184C785.358 337.616 785.418 337.904 785.538 338.048C785.682 338.168 785.97 338.228 786.402 338.228H787.77V341H785.466C783.21 341 782.082 339.944 782.082 337.832V326.06H780.426V323.432H782.082V320.444H785.358V323.432H787.77V326.06ZM795.177 323.432H796.437C798.621 323.432 799.713 324.5 799.713 326.636V341H796.473V327.104C796.473 326.672 796.401 326.396 796.257 326.276C796.113 326.132 795.825 326.06 795.393 326.06H794.133C793.701 326.06 793.389 326.156 793.197 326.348C793.029 326.54 792.945 326.864 792.945 327.32V341H789.705V316.916H792.945V324.836C793.257 323.9 794.001 323.432 795.177 323.432ZM809.586 323.432H812.826V341H809.586V339.596C809.274 340.532 808.53 341 807.354 341H806.058C803.898 341 802.818 339.944 802.818 337.832V323.432H806.058V337.328C806.058 337.76 806.13 338.048 806.274 338.192C806.418 338.312 806.706 338.372 807.138 338.372H808.398C808.83 338.372 809.13 338.276 809.298 338.084C809.49 337.892 809.586 337.568 809.586 337.112V323.432ZM821.474 323.396H822.734C824.918 323.396 826.01 324.464 826.01 326.6V337.832C826.01 339.944 824.918 341 822.734 341H821.474C820.298 341 819.554 340.532 819.242 339.596V341H816.002V316.916H819.242V324.8C819.554 323.864 820.298 323.396 821.474 323.396ZM822.77 337.328V327.068C822.77 326.66 822.698 326.384 822.554 326.24C822.41 326.096 822.122 326.024 821.69 326.024H820.43C819.998 326.024 819.686 326.12 819.494 326.312C819.326 326.504 819.242 326.828 819.242 327.284V337.112C819.242 337.568 819.326 337.892 819.494 338.084C819.686 338.276 819.998 338.372 820.43 338.372H821.69C822.122 338.372 822.41 338.312 822.554 338.192C822.698 338.048 822.77 337.76 822.77 337.328Z" fill="#FFFA78"/>
</svg>
