<svg width="1512" height="982" viewBox="0 0 1512 982" fill="none" xmlns="http://www.w3.org/2000/svg">
<rect width="1512" height="982" fill="#353535"/>
<path d="M376.8 220.4H385.9L375.9 283H363.4L356.4 236L349.5 283H337L327 220.4H336.3L343.3 274.8L351.4 220.4H361.4L369.5 274.8L376.8 220.4ZM400.438 234.2H410.238C416.504 234.2 419.638 237.167 419.638 243.1V261.4H399.938V273C399.938 274.133 400.138 274.9 400.538 275.3C400.938 275.7 401.738 275.9 402.938 275.9H407.538C408.738 275.9 409.538 275.7 409.938 275.3C410.338 274.9 410.538 274.1 410.538 272.9V268.9H419.338V274.2C419.338 280.067 416.238 283 410.038 283H400.438C394.238 283 391.138 280.067 391.138 274.2V243.1C391.138 237.167 394.238 234.2 400.438 234.2ZM399.938 254.8H410.738V244.2C410.738 243.067 410.538 242.3 410.138 241.9C409.804 241.5 409.038 241.3 407.838 241.3H402.938C401.738 241.3 400.938 241.5 400.538 241.9C400.138 242.3 399.938 243.067 399.938 244.2V254.8ZM436.373 283H427.373V216.1H436.373V283ZM472.746 249.6H463.846V244.4C463.846 243.2 463.646 242.433 463.246 242.1C462.846 241.7 462.046 241.5 460.846 241.5H456.546C455.346 241.5 454.546 241.7 454.146 242.1C453.746 242.433 453.546 243.2 453.546 244.4V272.8C453.546 274 453.746 274.8 454.146 275.2C454.546 275.533 455.346 275.7 456.546 275.7H460.846C462.046 275.7 462.846 275.533 463.246 275.2C463.646 274.8 463.846 274 463.846 272.8V267.6H472.746V274.2C472.746 280.067 469.613 283 463.346 283H453.846C447.646 283 444.546 280.067 444.546 274.2V243.1C444.546 237.167 447.646 234.2 453.846 234.2H463.346C469.613 234.2 472.746 237.167 472.746 243.1V249.6ZM488.905 234.2H499.605C505.805 234.2 508.905 237.167 508.905 243.1V274.2C508.905 280.067 505.805 283 499.605 283H488.905C482.771 283 479.705 280.067 479.705 274.2V243.1C479.705 237.167 482.771 234.2 488.905 234.2ZM500.005 272.9V244.3C500.005 243.1 499.805 242.3 499.405 241.9C499.005 241.5 498.205 241.3 497.005 241.3H491.505C490.305 241.3 489.505 241.5 489.105 241.9C488.771 242.3 488.605 243.1 488.605 244.3V272.9C488.605 274.1 488.771 274.9 489.105 275.3C489.505 275.7 490.305 275.9 491.505 275.9H497.005C498.205 275.9 499.005 275.7 499.405 275.3C499.805 274.9 500.005 274.1 500.005 272.9ZM551.216 234.2H554.716C560.716 234.2 563.716 237.167 563.716 243.1V283H554.716V244.4C554.716 243.2 554.516 242.433 554.116 242.1C553.783 241.7 553.016 241.5 551.816 241.5H548.216C546.083 241.5 545.016 242.667 545.016 245V283H536.016V244.4C536.016 243.2 535.816 242.433 535.416 242.1C535.016 241.7 534.216 241.5 533.016 241.5H529.516C528.316 241.5 527.45 241.767 526.916 242.3C526.45 242.833 526.216 243.733 526.216 245V283H517.216V234.2H526.216V238.1C527.083 235.5 529.15 234.2 532.416 234.2H535.916C540.183 234.2 542.95 235.7 544.216 238.7C545.016 235.7 547.35 234.2 551.216 234.2ZM581.102 234.2H590.902C597.168 234.2 600.302 237.167 600.302 243.1V261.4H580.602V273C580.602 274.133 580.802 274.9 581.202 275.3C581.602 275.7 582.402 275.9 583.602 275.9H588.202C589.402 275.9 590.202 275.7 590.602 275.3C591.002 274.9 591.202 274.1 591.202 272.9V268.9H600.002V274.2C600.002 280.067 596.902 283 590.702 283H581.102C574.902 283 571.802 280.067 571.802 274.2V243.1C571.802 237.167 574.902 234.2 581.102 234.2ZM580.602 254.8H591.402V244.2C591.402 243.067 591.202 242.3 590.802 241.9C590.468 241.5 589.702 241.3 588.502 241.3H583.602C582.402 241.3 581.602 241.5 581.202 241.9C580.802 242.3 580.602 243.067 580.602 244.2V254.8ZM638.99 241.5H632.29V272.4C632.29 273.6 632.457 274.4 632.79 274.8C633.19 275.133 633.99 275.3 635.19 275.3H638.99V283H632.59C626.323 283 623.19 280.067 623.19 274.2V241.5H618.59V234.2H623.19V225.9H632.29V234.2H638.99V241.5ZM653.065 234.2H663.765C669.965 234.2 673.065 237.167 673.065 243.1V274.2C673.065 280.067 669.965 283 663.765 283H653.065C646.932 283 643.865 280.067 643.865 274.2V243.1C643.865 237.167 646.932 234.2 653.065 234.2ZM664.165 272.9V244.3C664.165 243.1 663.965 242.3 663.565 241.9C663.165 241.5 662.365 241.3 661.165 241.3H655.665C654.465 241.3 653.665 241.5 653.265 241.9C652.932 242.3 652.765 243.1 652.765 244.3V272.9C652.765 274.1 652.932 274.9 653.265 275.3C653.665 275.7 654.465 275.9 655.665 275.9H661.165C662.365 275.9 663.165 275.7 663.565 275.3C663.965 274.9 664.165 274.1 664.165 272.9ZM709.73 220.4V283H700.63V227.7H693.43V220.4H709.73ZM740.165 272.8V230.6C740.165 229.4 739.965 228.633 739.565 228.3C739.165 227.9 738.365 227.7 737.165 227.7H731.765C730.565 227.7 729.765 227.9 729.365 228.3C729.032 228.633 728.865 229.4 728.865 230.6V272.8C728.865 274 729.032 274.8 729.365 275.2C729.765 275.533 730.565 275.7 731.765 275.7H737.165C738.365 275.7 739.165 275.533 739.565 275.2C739.965 274.8 740.165 274 740.165 272.8ZM749.265 229.2V274.2C749.265 280.067 746.165 283 739.965 283H729.065C722.798 283 719.665 280.067 719.665 274.2V229.2C719.665 223.333 722.798 220.4 729.065 220.4H739.965C746.165 220.4 749.265 223.333 749.265 229.2ZM779.13 272.8V230.6C779.13 229.4 778.93 228.633 778.53 228.3C778.13 227.9 777.33 227.7 776.13 227.7H770.73C769.53 227.7 768.73 227.9 768.33 228.3C767.996 228.633 767.83 229.4 767.83 230.6V272.8C767.83 274 767.996 274.8 768.33 275.2C768.73 275.533 769.53 275.7 770.73 275.7H776.13C777.33 275.7 778.13 275.533 778.53 275.2C778.93 274.8 779.13 274 779.13 272.8ZM788.23 229.2V274.2C788.23 280.067 785.13 283 778.93 283H768.03C761.763 283 758.63 280.067 758.63 274.2V229.2C758.63 223.333 761.763 220.4 768.03 220.4H778.93C785.13 220.4 788.23 223.333 788.23 229.2ZM806.595 247H817.595C823.795 247 826.895 249.967 826.895 255.9V274.2C826.895 280.067 823.795 283 817.595 283H806.995C800.728 283 797.595 280.067 797.595 274.2V229.2C797.595 223.333 800.728 220.4 806.995 220.4H817.295C823.495 220.4 826.595 223.333 826.595 229.2V240H817.695V230.6C817.695 229.4 817.495 228.633 817.095 228.3C816.695 227.9 815.895 227.7 814.695 227.7H809.595C808.395 227.7 807.595 227.9 807.195 228.3C806.795 228.633 806.595 229.4 806.595 230.6V247ZM817.895 272.8V257.1C817.895 255.967 817.695 255.2 817.295 254.8C816.895 254.4 816.095 254.2 814.895 254.2H806.595V272.8C806.595 274 806.795 274.8 807.195 275.2C807.595 275.533 808.395 275.7 809.595 275.7H814.895C816.095 275.7 816.895 275.533 817.295 275.2C817.695 274.8 817.895 274 817.895 272.8ZM844.478 283H835.478V216.1H844.478V283ZM862.352 234.2H872.152C878.418 234.2 881.552 237.167 881.552 243.1V261.4H861.852V273C861.852 274.133 862.052 274.9 862.452 275.3C862.852 275.7 863.652 275.9 864.852 275.9H869.452C870.652 275.9 871.452 275.7 871.852 275.3C872.252 274.9 872.452 274.1 872.452 272.9V268.9H881.252V274.2C881.252 280.067 878.152 283 871.952 283H862.352C856.152 283 853.052 280.067 853.052 274.2V243.1C853.052 237.167 856.152 234.2 862.352 234.2ZM861.852 254.8H872.652V244.2C872.652 243.067 872.452 242.3 872.052 241.9C871.718 241.5 870.952 241.3 869.752 241.3H864.852C863.652 241.3 862.852 241.5 862.452 241.9C862.052 242.3 861.852 243.067 861.852 244.2V254.8ZM923.287 234.2H926.787C932.787 234.2 935.787 237.167 935.787 243.1V283H926.787V244.4C926.787 243.2 926.587 242.433 926.187 242.1C925.853 241.7 925.087 241.5 923.887 241.5H920.287C918.153 241.5 917.087 242.667 917.087 245V283H908.087V244.4C908.087 243.2 907.887 242.433 907.487 242.1C907.087 241.7 906.287 241.5 905.087 241.5H901.587C900.387 241.5 899.52 241.767 898.987 242.3C898.52 242.833 898.287 243.733 898.287 245V283H889.287V234.2H898.287V238.1C899.153 235.5 901.22 234.2 904.487 234.2H907.987C912.253 234.2 915.02 235.7 916.287 238.7C917.087 235.7 919.42 234.2 923.287 234.2ZM942.872 220.4H952.972V226.9L945.972 246.6H942.872V220.4ZM976.973 273.2V265.1C976.973 263.9 976.773 263.133 976.373 262.8C975.973 262.4 975.173 262.2 973.973 262.2H968.873C962.673 262.2 959.573 259.267 959.573 253.4V243.1C959.573 237.167 962.673 234.2 968.873 234.2H976.173C982.44 234.2 985.573 237.167 985.573 243.1V247.8H976.773V244C976.773 242.8 976.573 242.033 976.173 241.7C975.773 241.3 974.973 241.1 973.773 241.1H971.373C970.173 241.1 969.373 241.3 968.973 241.7C968.573 242.033 968.373 242.8 968.373 244V252.4C968.373 253.6 968.573 254.4 968.973 254.8C969.373 255.133 970.173 255.3 971.373 255.3H976.573C982.707 255.3 985.773 258.267 985.773 264.2V274.2C985.773 280.067 982.673 283 976.473 283H969.073C962.873 283 959.773 280.067 959.773 274.2V269.4H968.573V273.2C968.573 274.4 968.773 275.2 969.173 275.6C969.573 275.933 970.373 276.1 971.573 276.1H973.973C975.173 276.1 975.973 275.933 976.373 275.6C976.773 275.2 976.973 274.4 976.973 273.2ZM1030.74 244.7V230.4C1030.74 229.2 1030.54 228.433 1030.14 228.1C1029.74 227.7 1028.94 227.5 1027.74 227.5H1017.74V247.6H1027.74C1028.94 247.6 1029.74 247.433 1030.14 247.1C1030.54 246.7 1030.74 245.9 1030.74 244.7ZM1030.74 273V257.6C1030.74 256.4 1030.54 255.633 1030.14 255.3C1029.74 254.9 1028.94 254.7 1027.74 254.7H1017.74V275.9H1027.74C1028.94 275.9 1029.74 275.733 1030.14 275.4C1030.54 275 1030.74 274.2 1030.74 273ZM1008.74 220.4H1030.44C1036.71 220.4 1039.84 223.333 1039.84 229.2V245.1C1039.84 248.633 1038.51 250.7 1035.84 251.3C1038.51 251.967 1039.84 253.9 1039.84 257.1V274.2C1039.84 280.067 1036.71 283 1030.44 283H1008.74V220.4ZM1057.86 283H1048.86V216.1H1057.86V283ZM1075.33 234.2H1086.03C1092.23 234.2 1095.33 237.167 1095.33 243.1V274.2C1095.33 280.067 1092.23 283 1086.03 283H1075.33C1069.2 283 1066.13 280.067 1066.13 274.2V243.1C1066.13 237.167 1069.2 234.2 1075.33 234.2ZM1086.43 272.9V244.3C1086.43 243.1 1086.23 242.3 1085.83 241.9C1085.43 241.5 1084.63 241.3 1083.43 241.3H1077.93C1076.73 241.3 1075.93 241.5 1075.53 241.9C1075.2 242.3 1075.03 243.1 1075.03 244.3V272.9C1075.03 274.1 1075.2 274.9 1075.53 275.3C1075.93 275.7 1076.73 275.9 1077.93 275.9H1083.43C1084.63 275.9 1085.43 275.7 1085.83 275.3C1086.23 274.9 1086.43 274.1 1086.43 272.9ZM1121.84 234.2H1130.84V288C1130.84 293.867 1127.71 296.8 1121.44 296.8H1104.74V289.7H1118.84C1120.04 289.7 1120.84 289.5 1121.24 289.1C1121.64 288.7 1121.84 287.933 1121.84 286.8V278.5C1120.98 281.1 1118.91 282.4 1115.64 282.4H1112.04C1106.04 282.4 1103.04 279.433 1103.04 273.5V243.1C1103.04 237.167 1106.04 234.2 1112.04 234.2H1115.64C1118.91 234.2 1120.98 235.5 1121.84 238.1V234.2ZM1115.04 275.1H1118.54C1119.74 275.1 1120.58 274.833 1121.04 274.3C1121.58 273.767 1121.84 272.867 1121.84 271.6V245C1121.84 243.733 1121.58 242.833 1121.04 242.3C1120.58 241.767 1119.74 241.5 1118.54 241.5H1115.04C1113.84 241.5 1113.04 241.7 1112.64 242.1C1112.24 242.433 1112.04 243.2 1112.04 244.4V272.2C1112.04 273.333 1112.24 274.1 1112.64 274.5C1113.04 274.9 1113.84 275.1 1115.04 275.1ZM1140.58 283V270.7H1150.68V283H1140.58ZM1140.28 220.4H1151.18L1149.48 262.6H1141.98L1140.28 220.4Z" fill="white"/>
<path d="M660.588 318.464V341H657.312V321.092H654.72V318.464H660.588ZM671.545 337.328V322.136C671.545 321.704 671.473 321.428 671.329 321.308C671.185 321.164 670.897 321.092 670.465 321.092H668.521C668.089 321.092 667.801 321.164 667.657 321.308C667.537 321.428 667.477 321.704 667.477 322.136V337.328C667.477 337.76 667.537 338.048 667.657 338.192C667.801 338.312 668.089 338.372 668.521 338.372H670.465C670.897 338.372 671.185 338.312 671.329 338.192C671.473 338.048 671.545 337.76 671.545 337.328ZM674.821 321.632V337.832C674.821 339.944 673.705 341 671.473 341H667.549C665.293 341 664.165 339.944 664.165 337.832V321.632C664.165 319.52 665.293 318.464 667.549 318.464H671.473C673.705 318.464 674.821 319.52 674.821 321.632ZM685.572 337.328V322.136C685.572 321.704 685.5 321.428 685.356 321.308C685.212 321.164 684.924 321.092 684.492 321.092H682.548C682.116 321.092 681.828 321.164 681.684 321.308C681.564 321.428 681.504 321.704 681.504 322.136V337.328C681.504 337.76 681.564 338.048 681.684 338.192C681.828 338.312 682.116 338.372 682.548 338.372H684.492C684.924 338.372 685.212 338.312 685.356 338.192C685.5 338.048 685.572 337.76 685.572 337.328ZM688.848 321.632V337.832C688.848 339.944 687.732 341 685.5 341H681.576C679.32 341 678.192 339.944 678.192 337.832V321.632C678.192 319.52 679.32 318.464 681.576 318.464H685.5C687.732 318.464 688.848 319.52 688.848 321.632ZM695.459 328.04H699.419C701.651 328.04 702.767 329.108 702.767 331.244V337.832C702.767 339.944 701.651 341 699.419 341H695.603C693.347 341 692.219 339.944 692.219 337.832V321.632C692.219 319.52 693.347 318.464 695.603 318.464H699.311C701.543 318.464 702.659 319.52 702.659 321.632V325.52H699.455V322.136C699.455 321.704 699.383 321.428 699.239 321.308C699.095 321.164 698.807 321.092 698.375 321.092H696.539C696.107 321.092 695.819 321.164 695.675 321.308C695.531 321.428 695.459 321.704 695.459 322.136V328.04ZM699.527 337.328V331.676C699.527 331.268 699.455 330.992 699.311 330.848C699.167 330.704 698.879 330.632 698.447 330.632H695.459V337.328C695.459 337.76 695.531 338.048 695.675 338.192C695.819 338.312 696.107 338.372 696.539 338.372H698.447C698.879 338.372 699.167 338.312 699.311 338.192C699.455 338.048 699.527 337.76 699.527 337.328ZM709.097 341H705.857V316.916H709.097V341ZM715.532 323.432H719.06C721.316 323.432 722.444 324.5 722.444 326.636V333.224H715.352V337.4C715.352 337.808 715.424 338.084 715.568 338.228C715.712 338.372 716 338.444 716.432 338.444H718.088C718.52 338.444 718.808 338.372 718.952 338.228C719.096 338.084 719.168 337.796 719.168 337.364V335.924H722.336V337.832C722.336 339.944 721.22 341 718.988 341H715.532C713.3 341 712.184 339.944 712.184 337.832V326.636C712.184 324.5 713.3 323.432 715.532 323.432ZM715.352 330.848H719.24V327.032C719.24 326.624 719.168 326.348 719.024 326.204C718.904 326.06 718.628 325.988 718.196 325.988H716.432C716 325.988 715.712 326.06 715.568 326.204C715.424 326.348 715.352 326.624 715.352 327.032V330.848ZM737.469 323.432H738.729C740.889 323.432 741.969 324.5 741.969 326.636V341H738.729V327.104C738.729 326.672 738.657 326.396 738.513 326.276C738.393 326.132 738.117 326.06 737.685 326.06H736.389C735.621 326.06 735.237 326.48 735.237 327.32V341H731.997V327.104C731.997 326.672 731.925 326.396 731.781 326.276C731.637 326.132 731.349 326.06 730.917 326.06H729.657C729.225 326.06 728.913 326.156 728.721 326.348C728.553 326.54 728.469 326.864 728.469 327.32V341H725.229V323.432H728.469V324.836C728.781 323.9 729.525 323.432 730.701 323.432H731.961C733.497 323.432 734.493 323.972 734.949 325.052C735.237 323.972 736.077 323.432 737.469 323.432ZM750.514 314.252H753.646V345.248H750.514V314.252ZM769.011 323.432H772.251V342.8C772.251 344.912 771.123 345.968 768.867 345.968H762.855V343.412H767.931C768.363 343.412 768.651 343.34 768.795 343.196C768.939 343.052 769.011 342.776 769.011 342.368V339.38C768.699 340.316 767.955 340.784 766.779 340.784H765.483C763.323 340.784 762.243 339.716 762.243 337.58V326.636C762.243 324.5 763.323 323.432 765.483 323.432H766.779C767.955 323.432 768.699 323.9 769.011 324.836V323.432ZM766.563 338.156H767.823C768.255 338.156 768.555 338.06 768.723 337.868C768.915 337.676 769.011 337.352 769.011 336.896V327.32C769.011 326.864 768.915 326.54 768.723 326.348C768.555 326.156 768.255 326.06 767.823 326.06H766.563C766.131 326.06 765.843 326.132 765.699 326.276C765.555 326.396 765.483 326.672 765.483 327.104V337.112C765.483 337.52 765.555 337.796 765.699 337.94C765.843 338.084 766.131 338.156 766.563 338.156ZM775.36 320.084V316.88H778.744V320.084H775.36ZM778.672 341H775.432V323.432H778.672V341ZM787.77 326.06H785.358V337.184C785.358 337.616 785.418 337.904 785.538 338.048C785.682 338.168 785.97 338.228 786.402 338.228H787.77V341H785.466C783.21 341 782.082 339.944 782.082 337.832V326.06H780.426V323.432H782.082V320.444H785.358V323.432H787.77V326.06ZM795.177 323.432H796.437C798.621 323.432 799.713 324.5 799.713 326.636V341H796.473V327.104C796.473 326.672 796.401 326.396 796.257 326.276C796.113 326.132 795.825 326.06 795.393 326.06H794.133C793.701 326.06 793.389 326.156 793.197 326.348C793.029 326.54 792.945 326.864 792.945 327.32V341H789.705V316.916H792.945V324.836C793.257 323.9 794.001 323.432 795.177 323.432ZM809.586 323.432H812.826V341H809.586V339.596C809.274 340.532 808.53 341 807.354 341H806.058C803.898 341 802.818 339.944 802.818 337.832V323.432H806.058V337.328C806.058 337.76 806.13 338.048 806.274 338.192C806.418 338.312 806.706 338.372 807.138 338.372H808.398C808.83 338.372 809.13 338.276 809.298 338.084C809.49 337.892 809.586 337.568 809.586 337.112V323.432ZM821.474 323.396H822.734C824.918 323.396 826.01 324.464 826.01 326.6V337.832C826.01 339.944 824.918 341 822.734 341H821.474C820.298 341 819.554 340.532 819.242 339.596V341H816.002V316.916H819.242V324.8C819.554 323.864 820.298 323.396 821.474 323.396ZM822.77 337.328V327.068C822.77 326.66 822.698 326.384 822.554 326.24C822.41 326.096 822.122 326.024 821.69 326.024H820.43C819.998 326.024 819.686 326.12 819.494 326.312C819.326 326.504 819.242 326.828 819.242 327.284V337.112C819.242 337.568 819.326 337.892 819.494 338.084C819.686 338.276 819.998 338.372 820.43 338.372H821.69C822.122 338.372 822.41 338.312 822.554 338.192C822.698 338.048 822.77 337.76 822.77 337.328Z" fill="#FFFA78"/>
<path d="M489.84 719.936H495.6V760H489.84V719.936ZM511.982 728.768H514.222C518.104 728.768 520.046 730.667 520.046 734.464V760H514.286V735.296C514.286 734.528 514.158 734.037 513.902 733.824C513.646 733.568 513.134 733.44 512.366 733.44H510.126C509.358 733.44 508.803 733.611 508.462 733.952C508.163 734.293 508.014 734.869 508.014 735.68V760H502.254V728.768H508.014V731.264C508.568 729.6 509.891 728.768 511.982 728.768ZM536.701 722.048H534.013C533.245 722.048 532.733 722.176 532.477 722.432C532.221 722.645 532.093 723.136 532.093 723.904V728.768H536.701V733.44H532.093V760H526.333V733.44H523.197V728.768H526.333V722.816C526.333 719.061 528.317 717.184 532.285 717.184H536.701V722.048ZM550.632 728.704H551.912V733.696H549.608C546.92 733.696 545.576 735.275 545.576 738.432V760H539.816V728.768H545.576V732.608C545.917 731.499 546.515 730.581 547.368 729.856C548.264 729.088 549.352 728.704 550.632 728.704ZM566.714 728.768H572.474V760H566.714V757.504C566.159 759.168 564.837 760 562.746 760H560.442C556.602 760 554.682 758.123 554.682 754.368V734.464C554.682 730.667 556.602 728.768 560.442 728.768H562.746C564.837 728.768 566.159 729.6 566.714 731.264V728.768ZM562.362 755.328H564.602C565.37 755.328 565.903 755.157 566.202 754.816C566.543 754.475 566.714 753.899 566.714 753.088V735.68C566.714 734.869 566.543 734.293 566.202 733.952C565.903 733.611 565.37 733.44 564.602 733.44H562.362C561.594 733.44 561.082 733.568 560.826 733.824C560.57 734.037 560.442 734.528 560.442 735.296V753.472C560.442 754.24 560.57 754.752 560.826 755.008C561.082 755.221 561.594 755.328 562.362 755.328ZM588.561 753.728V748.544C588.561 747.776 588.433 747.285 588.177 747.072C587.921 746.816 587.409 746.688 586.641 746.688H583.377C579.409 746.688 577.424 744.811 577.424 741.056V734.464C577.424 730.667 579.409 728.768 583.377 728.768H588.049C592.059 728.768 594.065 730.667 594.065 734.464V737.472H588.433V735.04C588.433 734.272 588.305 733.781 588.049 733.568C587.793 733.312 587.281 733.184 586.513 733.184H584.977C584.209 733.184 583.697 733.312 583.441 733.568C583.185 733.781 583.057 734.272 583.057 735.04V740.416C583.057 741.184 583.185 741.696 583.441 741.952C583.697 742.165 584.209 742.272 584.977 742.272H588.305C592.23 742.272 594.193 744.171 594.193 747.968V754.368C594.193 758.123 592.209 760 588.241 760H583.505C579.537 760 577.553 758.123 577.553 754.368V751.296H583.185V753.728C583.185 754.496 583.313 755.008 583.569 755.264C583.825 755.477 584.337 755.584 585.105 755.584H586.641C587.409 755.584 587.921 755.477 588.177 755.264C588.433 755.008 588.561 754.496 588.561 753.728ZM609.689 733.44H605.401V753.216C605.401 753.984 605.507 754.496 605.72 754.752C605.977 754.965 606.489 755.072 607.257 755.072H609.689V760H605.593C601.582 760 599.577 758.123 599.577 754.368V733.44H596.633V728.768H599.577V723.456H605.401V728.768H609.689V733.44ZM623.945 728.704H625.225V733.696H622.921C620.233 733.696 618.889 735.275 618.889 738.432V760H613.129V728.768H618.889V732.608C619.23 731.499 619.827 730.581 620.681 729.856C621.577 729.088 622.665 728.704 623.945 728.704ZM640.347 728.768H646.107V760H640.347V757.504C639.792 759.168 638.469 760 636.379 760H634.075C630.235 760 628.315 758.123 628.315 754.368V728.768H634.075V753.472C634.075 754.24 634.203 754.752 634.459 755.008C634.715 755.221 635.227 755.328 635.995 755.328H638.235C639.003 755.328 639.536 755.157 639.835 754.816C640.176 754.475 640.347 753.899 640.347 753.088V728.768ZM669.418 738.624H663.722V735.296C663.722 734.528 663.594 734.037 663.338 733.824C663.082 733.568 662.57 733.44 661.802 733.44H659.05C658.282 733.44 657.77 733.568 657.514 733.824C657.258 734.037 657.13 734.528 657.13 735.296V753.472C657.13 754.24 657.258 754.752 657.514 755.008C657.77 755.221 658.282 755.328 659.05 755.328H661.802C662.57 755.328 663.082 755.221 663.338 755.008C663.594 754.752 663.722 754.24 663.722 753.472V750.144H669.418V754.368C669.418 758.123 667.412 760 663.402 760H657.322C653.354 760 651.37 758.123 651.37 754.368V734.464C651.37 730.667 653.354 728.768 657.322 728.768H663.402C667.412 728.768 669.418 730.667 669.418 734.464V738.624ZM684.751 733.44H680.463V753.216C680.463 753.984 680.57 754.496 680.783 754.752C681.039 754.965 681.551 755.072 682.319 755.072H684.751V760H680.655C676.644 760 674.639 758.123 674.639 754.368V733.44H671.695V728.768H674.639V723.456H680.463V728.768H684.751V733.44ZM700.159 728.768H705.919V760H700.159V757.504C699.604 759.168 698.282 760 696.191 760H693.887C690.047 760 688.127 758.123 688.127 754.368V728.768H693.887V753.472C693.887 754.24 694.015 754.752 694.271 755.008C694.527 755.221 695.039 755.328 695.807 755.328H698.047C698.815 755.328 699.348 755.157 699.647 754.816C699.988 754.475 700.159 753.899 700.159 753.088V728.768ZM722.382 728.704H723.662V733.696H721.358C718.67 733.696 717.326 735.275 717.326 738.432V760H711.566V728.768H717.326V732.608C717.667 731.499 718.265 730.581 719.118 729.856C720.014 729.088 721.102 728.704 722.382 728.704ZM732.64 728.768H738.912C742.923 728.768 744.928 730.667 744.928 734.464V746.176H732.32V753.6C732.32 754.325 732.448 754.816 732.704 755.072C732.96 755.328 733.472 755.456 734.24 755.456H737.184C737.952 755.456 738.464 755.328 738.72 755.072C738.976 754.816 739.104 754.304 739.104 753.536V750.976H744.736V754.368C744.736 758.123 742.752 760 738.784 760H732.64C728.672 760 726.688 758.123 726.688 754.368V734.464C726.688 730.667 728.672 728.768 732.64 728.768ZM732.32 741.952H739.232V735.168C739.232 734.443 739.104 733.952 738.848 733.696C738.635 733.44 738.144 733.312 737.376 733.312H734.24C733.472 733.312 732.96 733.44 732.704 733.696C732.448 733.952 732.32 734.443 732.32 735.168V741.952ZM758.361 752.128H764.825V756.288L760.409 768.96H758.361V752.128ZM793.725 719.936H799.037V760H793.213L784.765 731.072V760H779.453V719.936H785.533L793.725 748.032V719.936ZM811.015 728.768H817.287C821.298 728.768 823.303 730.667 823.303 734.464V746.176H810.695V753.6C810.695 754.325 810.823 754.816 811.079 755.072C811.335 755.328 811.847 755.456 812.615 755.456H815.559C816.327 755.456 816.839 755.328 817.095 755.072C817.351 754.816 817.479 754.304 817.479 753.536V750.976H823.111V754.368C823.111 758.123 821.127 760 817.159 760H811.015C807.047 760 805.063 758.123 805.063 754.368V734.464C805.063 730.667 807.047 728.768 811.015 728.768ZM810.695 741.952H817.607V735.168C817.607 734.443 817.479 733.952 817.223 733.696C817.01 733.44 816.519 733.312 815.751 733.312H812.615C811.847 733.312 811.335 733.44 811.079 733.696C810.823 733.952 810.695 734.443 810.695 735.168V741.952ZM838.814 733.44H834.526V753.216C834.526 753.984 834.632 754.496 834.845 754.752C835.102 754.965 835.614 755.072 836.382 755.072H838.814V760H834.718C830.707 760 828.702 758.123 828.702 754.368V733.44H825.758V728.768H828.702V723.456H834.526V728.768H838.814V733.44ZM868.43 728.768H873.87L868.11 760H860.494L856.782 736.384L853.07 760H845.454L839.758 728.768H845.198L849.358 755.072L853.39 728.768H860.238L864.142 755.072L868.43 728.768ZM882.572 728.768H889.42C893.388 728.768 895.372 730.667 895.372 734.464V754.368C895.372 758.123 893.388 760 889.42 760H882.572C878.646 760 876.684 758.123 876.684 754.368V734.464C876.684 730.667 878.646 728.768 882.572 728.768ZM889.676 753.536V735.232C889.676 734.464 889.548 733.952 889.292 733.696C889.036 733.44 888.524 733.312 887.756 733.312H884.236C883.468 733.312 882.956 733.44 882.7 733.696C882.486 733.952 882.38 734.464 882.38 735.232V753.536C882.38 754.304 882.486 754.816 882.7 755.072C882.956 755.328 883.468 755.456 884.236 755.456H887.756C888.524 755.456 889.036 755.328 889.292 755.072C889.548 754.816 889.676 754.304 889.676 753.536ZM911.507 728.704H912.787V733.696H910.483C907.795 733.696 906.451 735.275 906.451 738.432V760H900.691V728.768H906.451V732.608C906.792 731.499 907.39 730.581 908.243 729.856C909.139 729.088 910.227 728.704 911.507 728.704ZM935.781 728.768L928.613 743.68L935.781 760H929.637L922.725 743.68L929.637 728.768H935.781ZM915.941 760V717.184H921.701V760H915.941ZM938.048 752.128H944.512V756.288L940.096 768.96H938.048V752.128ZM957.861 760V752.128H964.325V760H957.861ZM968.423 760V752.128H974.887V760H968.423ZM978.986 760V752.128H985.45V760H978.986Z" fill="white"/>
<path d="M592.92 661.184H601.32V692H592.92V661.184ZM605.154 661.184H613.506V665.504L607.41 676.208H605.154V661.184ZM641.198 668.048H642.062C646.318 668.048 648.446 670.032 648.446 674V692H640.286V675.104C640.286 674.4 639.886 674.048 639.086 674.048H638.27C637.406 674.048 636.974 674.528 636.974 675.488V692H628.814V675.104C628.814 674.4 628.414 674.048 627.614 674.048H626.798C625.934 674.048 625.502 674.528 625.502 675.488V692H617.342V668.048H625.358V671.12C625.806 669.072 627.262 668.048 629.726 668.048H630.59C633.566 668.048 635.518 669.056 636.446 671.072C636.702 670.144 637.262 669.408 638.126 668.864C638.99 668.32 640.014 668.048 641.198 668.048ZM661.495 665.648V659.888H669.943V665.648H661.495ZM669.799 692H661.639V668.048H669.799V692ZM686.023 668.048H686.887C691.143 668.048 693.271 670.032 693.271 674V692H685.111V675.104C685.111 674.4 684.711 674.048 683.911 674.048H683.095C682.231 674.048 681.799 674.528 681.799 675.488V692H673.639V668.048H681.655V671.12C682.103 669.072 683.559 668.048 686.023 668.048ZM709.033 674.048H706.009V684.944C706.009 685.648 706.409 686 707.209 686H708.985V692H704.905C700.201 692 697.849 690.016 697.849 686.048V674.048H695.209V668.048H697.849V663.344H706.009V668.048H709.033V674.048ZM717.996 668.048H723.852C728.556 668.048 730.908 670.032 730.908 674V682.16H718.668V685.328C718.668 686.032 719.068 686.384 719.868 686.384H721.98C722.78 686.384 723.18 686 723.18 685.232V683.888H730.908V686.048C730.908 690.016 728.556 692 723.852 692H717.996C713.292 692 710.94 690.016 710.94 686.048V674C710.94 670.032 713.292 668.048 717.996 668.048ZM718.668 677.744H723.18V674.72C723.18 674.016 722.78 673.664 721.98 673.664H719.868C719.068 673.664 718.668 674.016 718.668 674.72V677.744ZM747.214 667.808H747.934V674.912H745.198C743.182 674.912 742.174 676 742.174 678.176V692H734.014V668.048H742.03V671.744C742.286 670.528 742.862 669.568 743.758 668.864C744.654 668.16 745.806 667.808 747.214 667.808ZM756.668 668.048H762.524C767.228 668.048 769.58 670.032 769.58 674V682.16H757.34V685.328C757.34 686.032 757.74 686.384 758.54 686.384H760.652C761.452 686.384 761.852 686 761.852 685.232V683.888H769.58V686.048C769.58 690.016 767.228 692 762.524 692H756.668C751.964 692 749.612 690.016 749.612 686.048V674C749.612 670.032 751.964 668.048 756.668 668.048ZM757.34 677.744H761.852V674.72C761.852 674.016 761.452 673.664 760.652 673.664H758.54C757.74 673.664 757.34 674.016 757.34 674.72V677.744ZM783.006 685.664V683.744C783.006 683.04 782.606 682.688 781.806 682.688H778.878C774.27 682.688 771.966 680.72 771.966 676.784V674C771.966 670.032 774.318 668.048 779.022 668.048H783.486C788.19 668.048 790.542 670.032 790.542 674V676.016H782.766V674.384C782.766 673.68 782.366 673.328 781.566 673.328H781.086C780.286 673.328 779.886 673.68 779.886 674.384V676.496C779.886 677.2 780.286 677.552 781.086 677.552H784.014C786.478 677.552 788.238 678.064 789.294 679.088C790.382 680.08 790.926 681.52 790.926 683.408V686.048C790.926 690.016 788.574 692 783.87 692H779.166C774.462 692 772.11 690.016 772.11 686.048V684.08H780.03V685.664C780.03 686.368 780.43 686.72 781.23 686.72H781.806C782.606 686.72 783.006 686.368 783.006 685.664ZM806.205 674.048H803.181V684.944C803.181 685.648 803.581 686 804.381 686H806.157V692H802.077C797.373 692 795.021 690.016 795.021 686.048V674.048H792.381V668.048H795.021V663.344H803.181V668.048H806.205V674.048ZM815.168 668.048H821.024C825.728 668.048 828.08 670.032 828.08 674V682.16H815.84V685.328C815.84 686.032 816.24 686.384 817.04 686.384H819.152C819.952 686.384 820.352 686 820.352 685.232V683.888H828.08V686.048C828.08 690.016 825.728 692 821.024 692H815.168C810.464 692 808.112 690.016 808.112 686.048V674C808.112 670.032 810.464 668.048 815.168 668.048ZM815.84 677.744H820.352V674.72C820.352 674.016 819.952 673.664 819.152 673.664H817.04C816.24 673.664 815.84 674.016 815.84 674.72V677.744ZM842.178 659.888H850.338V692H842.322V688.928C841.874 690.976 840.418 692 837.954 692H837.09C832.834 692 830.706 690.016 830.706 686.048V674C830.706 670.032 832.834 668.048 837.09 668.048H837.954C840.162 668.048 841.57 668.912 842.178 670.64V659.888ZM840.066 686H840.882C841.746 686 842.178 685.52 842.178 684.56V675.488C842.178 674.528 841.746 674.048 840.882 674.048H840.066C839.266 674.048 838.866 674.4 838.866 675.104V684.944C838.866 685.648 839.266 686 840.066 686ZM863.62 665.648V659.888H872.068V665.648H863.62ZM871.924 692H863.764V668.048H871.924V692ZM888.148 668.048H889.012C893.268 668.048 895.396 670.032 895.396 674V692H887.236V675.104C887.236 674.4 886.836 674.048 886.036 674.048H885.22C884.356 674.048 883.924 674.528 883.924 675.488V692H875.764V668.048H883.78V671.12C884.228 669.072 885.684 668.048 888.148 668.048Z" fill="white"/>
<path d="M712.224 428.184H720.48V459H712.224V446.808H706.176V459H697.92V428.184H706.176V440.808H712.224V428.184ZM730.887 435.048H736.743C741.447 435.048 743.799 437.032 743.799 441V449.16H731.559V452.328C731.559 453.032 731.959 453.384 732.759 453.384H734.871C735.671 453.384 736.071 453 736.071 452.232V450.888H743.799V453.048C743.799 457.016 741.447 459 736.743 459H730.887C726.183 459 723.831 457.016 723.831 453.048V441C723.831 437.032 726.183 435.048 730.887 435.048ZM731.559 444.744H736.071V441.72C736.071 441.016 735.671 440.664 734.871 440.664H732.759C731.959 440.664 731.559 441.016 731.559 441.72V444.744ZM755.064 459H746.904V426.888H755.064V459ZM767.064 459H758.904V426.888H767.064V459ZM777.48 435.048H783.576C786.008 435.048 787.752 435.56 788.808 436.584C789.864 437.608 790.392 439.08 790.392 441V453.048C790.392 454.968 789.864 456.44 788.808 457.464C787.752 458.488 786.008 459 783.576 459H777.48C775.048 459 773.304 458.488 772.248 457.464C771.192 456.44 770.664 454.968 770.664 453.048V441C770.664 439.08 771.192 437.608 772.248 436.584C773.304 435.56 775.048 435.048 777.48 435.048ZM782.376 452.28V441.768C782.376 441.064 781.976 440.712 781.176 440.712H779.88C779.08 440.712 778.68 441.064 778.68 441.768V452.28C778.68 452.984 779.08 453.336 779.88 453.336H781.176C781.976 453.336 782.376 452.984 782.376 452.28ZM795.07 459V451.128H803.326V459H795.07ZM794.494 428.184H803.95L802.51 447.816H795.934L794.494 428.184Z" fill="white"/>
<path d="M412.84 486.936H418.6V527H412.84V486.936ZM424.486 486.936H430.95V491.096L426.47 503.704H424.486V486.936ZM457.639 495.768H459.879C463.719 495.768 465.639 497.667 465.639 501.464V527H459.879V502.296C459.879 501.528 459.751 501.037 459.495 500.824C459.281 500.568 458.791 500.44 458.023 500.44H455.719C454.353 500.44 453.671 501.187 453.671 502.68V527H447.911V502.296C447.911 501.528 447.783 501.037 447.527 500.824C447.271 500.568 446.759 500.44 445.991 500.44H443.751C442.983 500.44 442.428 500.611 442.087 500.952C441.788 501.293 441.639 501.869 441.639 502.68V527H435.879V495.768H441.639V498.264C442.193 496.6 443.516 495.768 445.607 495.768H447.847C450.577 495.768 452.348 496.728 453.159 498.648C453.671 496.728 455.164 495.768 457.639 495.768ZM489.087 486.936V527H483.263V491.608H478.655V486.936H489.087ZM508.566 520.472V493.464C508.566 492.696 508.438 492.205 508.182 491.992C507.926 491.736 507.414 491.608 506.646 491.608H503.19C502.422 491.608 501.91 491.736 501.654 491.992C501.44 492.205 501.334 492.696 501.334 493.464V520.472C501.334 521.24 501.44 521.752 501.654 522.008C501.91 522.221 502.422 522.328 503.19 522.328H506.646C507.414 522.328 507.926 522.221 508.182 522.008C508.438 521.752 508.566 521.24 508.566 520.472ZM514.39 492.568V521.368C514.39 525.123 512.406 527 508.438 527H501.462C497.451 527 495.446 525.123 495.446 521.368V492.568C495.446 488.813 497.451 486.936 501.462 486.936H508.438C512.406 486.936 514.39 488.813 514.39 492.568ZM533.503 520.472V493.464C533.503 492.696 533.375 492.205 533.119 491.992C532.863 491.736 532.351 491.608 531.583 491.608H528.127C527.359 491.608 526.847 491.736 526.591 491.992C526.378 492.205 526.271 492.696 526.271 493.464V520.472C526.271 521.24 526.378 521.752 526.591 522.008C526.847 522.221 527.359 522.328 528.127 522.328H531.583C532.351 522.328 532.863 522.221 533.119 522.008C533.375 521.752 533.503 521.24 533.503 520.472ZM539.327 492.568V521.368C539.327 525.123 537.343 527 533.375 527H526.399C522.388 527 520.383 525.123 520.383 521.368V492.568C520.383 488.813 522.388 486.936 526.399 486.936H533.375C537.343 486.936 539.327 488.813 539.327 492.568ZM551.081 503.96H558.121C562.089 503.96 564.073 505.859 564.073 509.656V521.368C564.073 525.123 562.089 527 558.121 527H551.337C547.326 527 545.321 525.123 545.321 521.368V492.568C545.321 488.813 547.326 486.936 551.337 486.936H557.929C561.897 486.936 563.881 488.813 563.881 492.568V499.48H558.185V493.464C558.185 492.696 558.057 492.205 557.801 491.992C557.545 491.736 557.033 491.608 556.265 491.608H553.001C552.233 491.608 551.721 491.736 551.465 491.992C551.209 492.205 551.081 492.696 551.081 493.464V503.96ZM558.312 520.472V510.424C558.312 509.699 558.185 509.208 557.929 508.952C557.673 508.696 557.161 508.568 556.393 508.568H551.081V520.472C551.081 521.24 551.209 521.752 551.465 522.008C551.721 522.221 552.233 522.328 553.001 522.328H556.393C557.161 522.328 557.673 522.221 557.929 522.008C558.185 521.752 558.312 521.24 558.312 520.472ZM575.326 527H569.566V484.184H575.326V527ZM586.765 495.768H593.037C597.048 495.768 599.053 497.667 599.053 501.464V513.176H586.445V520.6C586.445 521.325 586.573 521.816 586.829 522.072C587.085 522.328 587.597 522.456 588.365 522.456H591.309C592.077 522.456 592.589 522.328 592.845 522.072C593.101 521.816 593.229 521.304 593.229 520.536V517.976H598.861V521.368C598.861 525.123 596.877 527 592.909 527H586.765C582.797 527 580.813 525.123 580.813 521.368V501.464C580.813 497.667 582.797 495.768 586.765 495.768ZM586.445 508.952H593.357V502.168C593.357 501.443 593.229 500.952 592.973 500.696C592.76 500.44 592.269 500.312 591.501 500.312H588.365C587.597 500.312 587.085 500.44 586.829 500.696C586.573 500.952 586.445 501.443 586.445 502.168V508.952ZM625.764 495.768H628.004C631.844 495.768 633.764 497.667 633.764 501.464V527H628.004V502.296C628.004 501.528 627.876 501.037 627.62 500.824C627.406 500.568 626.916 500.44 626.148 500.44H623.844C622.478 500.44 621.796 501.187 621.796 502.68V527H616.036V502.296C616.036 501.528 615.908 501.037 615.652 500.824C615.396 500.568 614.884 500.44 614.116 500.44H611.876C611.108 500.44 610.553 500.611 610.212 500.952C609.913 501.293 609.764 501.869 609.764 502.68V527H604.004V495.768H609.764V498.264C610.318 496.6 611.641 495.768 613.732 495.768H615.972C618.702 495.768 620.473 496.728 621.284 498.648C621.796 496.728 623.289 495.768 625.764 495.768ZM638.298 519.128H644.762V523.288L640.346 535.96H638.298V519.128ZM672.51 486.936H678.335V521.368C678.335 525.123 676.329 527 672.319 527H665.215C661.204 527 659.199 525.123 659.199 521.368V486.936H665.023V520.472C665.023 521.24 665.151 521.752 665.407 522.008C665.663 522.221 666.175 522.328 666.943 522.328H670.591C671.401 522.328 671.913 522.221 672.127 522.008C672.383 521.752 672.51 521.24 672.51 520.472V486.936ZM694.044 495.768H696.284C700.167 495.768 702.108 497.667 702.108 501.464V527H696.348V502.296C696.348 501.528 696.22 501.037 695.964 500.824C695.708 500.568 695.196 500.44 694.428 500.44H692.188C691.42 500.44 690.865 500.611 690.524 500.952C690.225 501.293 690.076 501.869 690.076 502.68V527H684.316V495.768H690.076V498.264C690.631 496.6 691.953 495.768 694.044 495.768ZM719.339 484.184H725.099V527H719.339V524.504C718.784 526.168 717.462 527 715.371 527H713.067C709.227 527 707.307 525.123 707.307 521.368V501.4C707.307 497.603 709.227 495.704 713.067 495.704H715.371C717.462 495.704 718.784 496.536 719.339 498.2V484.184ZM714.987 522.328H717.227C717.995 522.328 718.528 522.157 718.827 521.816C719.168 521.475 719.339 520.899 719.339 520.088V502.616C719.339 501.805 719.168 501.229 718.827 500.888C718.528 500.547 717.995 500.376 717.227 500.376H714.987C714.219 500.376 713.707 500.504 713.451 500.76C713.195 501.016 713.067 501.507 713.067 502.232V520.472C713.067 521.24 713.195 521.752 713.451 522.008C713.707 522.221 714.219 522.328 714.987 522.328ZM736.578 495.768H742.85C746.86 495.768 748.866 497.667 748.866 501.464V513.176H736.258V520.6C736.258 521.325 736.386 521.816 736.642 522.072C736.898 522.328 737.41 522.456 738.178 522.456H741.122C741.89 522.456 742.402 522.328 742.658 522.072C742.914 521.816 743.042 521.304 743.042 520.536V517.976H748.674V521.368C748.674 525.123 746.69 527 742.722 527H736.578C732.61 527 730.626 525.123 730.626 521.368V501.464C730.626 497.667 732.61 495.768 736.578 495.768ZM736.258 508.952H743.17V502.168C743.17 501.443 743.042 500.952 742.786 500.696C742.572 500.44 742.082 500.312 741.314 500.312H738.178C737.41 500.312 736.898 500.44 736.642 500.696C736.386 500.952 736.258 501.443 736.258 502.168V508.952ZM764.632 495.704H765.912V500.696H763.608C760.92 500.696 759.576 502.275 759.576 505.432V527H753.816V495.768H759.576V499.608C759.917 498.499 760.515 497.581 761.368 496.856C762.264 496.088 763.352 495.704 764.632 495.704ZM780.714 495.768H786.474V530.2C786.474 533.955 784.469 535.832 780.458 535.832H769.77V531.288H778.794C779.562 531.288 780.074 531.16 780.33 530.904C780.586 530.648 780.714 530.157 780.714 529.432V524.12C780.159 525.784 778.837 526.616 776.746 526.616H774.442C770.602 526.616 768.682 524.717 768.682 520.92V501.464C768.682 497.667 770.602 495.768 774.442 495.768H776.746C778.837 495.768 780.159 496.6 780.714 498.264V495.768ZM776.362 521.944H778.602C779.37 521.944 779.903 521.773 780.202 521.432C780.543 521.091 780.714 520.515 780.714 519.704V502.68C780.714 501.869 780.543 501.293 780.202 500.952C779.903 500.611 779.37 500.44 778.602 500.44H776.362C775.594 500.44 775.082 500.568 774.826 500.824C774.57 501.037 774.442 501.528 774.442 502.296V520.088C774.442 520.813 774.57 521.304 774.826 521.56C775.082 521.816 775.594 521.944 776.362 521.944ZM802.945 495.704H804.225V500.696H801.921C799.233 500.696 797.889 502.275 797.889 505.432V527H792.129V495.768H797.889V499.608C798.23 498.499 798.827 497.581 799.681 496.856C800.577 496.088 801.665 495.704 802.945 495.704ZM819.027 495.768H824.787V527H819.027V524.504C818.472 526.168 817.149 527 815.059 527H812.755C808.915 527 806.995 525.123 806.995 521.368V501.464C806.995 497.667 808.915 495.768 812.755 495.768H815.059C817.149 495.768 818.472 496.6 819.027 498.264V495.768ZM814.675 522.328H816.915C817.683 522.328 818.216 522.157 818.515 521.816C818.856 521.475 819.027 520.899 819.027 520.088V502.68C819.027 501.869 818.856 501.293 818.515 500.952C818.216 500.611 817.683 500.44 816.915 500.44H814.675C813.907 500.44 813.395 500.568 813.139 500.824C812.883 501.037 812.755 501.528 812.755 502.296V520.472C812.755 521.24 812.883 521.752 813.139 522.008C813.395 522.221 813.907 522.328 814.675 522.328ZM842.089 484.184H847.849V527H842.089V524.504C841.534 526.168 840.212 527 838.121 527H835.817C831.977 527 830.057 525.123 830.057 521.368V501.4C830.057 497.603 831.977 495.704 835.817 495.704H838.121C840.212 495.704 841.534 496.536 842.089 498.2V484.184ZM837.737 522.328H839.977C840.745 522.328 841.278 522.157 841.577 521.816C841.918 521.475 842.089 520.899 842.089 520.088V502.616C842.089 501.805 841.918 501.229 841.577 500.888C841.278 500.547 840.745 500.376 839.977 500.376H837.737C836.969 500.376 836.457 500.504 836.201 500.76C835.945 501.016 835.817 501.507 835.817 502.232V520.472C835.817 521.24 835.945 521.752 836.201 522.008C836.457 522.221 836.969 522.328 837.737 522.328ZM865.472 495.768H871.232V527H865.472V524.504C864.917 526.168 863.594 527 861.504 527H859.2C855.36 527 853.44 525.123 853.44 521.368V495.768H859.2V520.472C859.2 521.24 859.328 521.752 859.584 522.008C859.84 522.221 860.352 522.328 861.12 522.328H863.36C864.128 522.328 864.661 522.157 864.96 521.816C865.301 521.475 865.472 520.899 865.472 520.088V495.768ZM888.527 495.768H894.287V527H888.527V524.504C887.972 526.168 886.649 527 884.559 527H882.255C878.415 527 876.495 525.123 876.495 521.368V501.464C876.495 497.667 878.415 495.768 882.255 495.768H884.559C886.649 495.768 887.972 496.6 888.527 498.264V495.768ZM884.175 522.328H886.415C887.183 522.328 887.716 522.157 888.015 521.816C888.356 521.475 888.527 520.899 888.527 520.088V502.68C888.527 501.869 888.356 501.293 888.015 500.952C887.716 500.611 887.183 500.44 886.415 500.44H884.175C883.407 500.44 882.895 500.568 882.639 500.824C882.383 501.037 882.255 501.528 882.255 502.296V520.472C882.255 521.24 882.383 521.752 882.639 522.008C882.895 522.221 883.407 522.328 884.175 522.328ZM910.501 500.44H906.213V520.216C906.213 520.984 906.32 521.496 906.533 521.752C906.789 521.965 907.301 522.072 908.069 522.072H910.501V527H906.405C902.394 527 900.389 525.123 900.389 521.368V500.44H897.445V495.768H900.389V490.456H906.213V495.768H910.501V500.44ZM919.765 495.768H926.037C930.048 495.768 932.053 497.667 932.053 501.464V513.176H919.445V520.6C919.445 521.325 919.573 521.816 919.829 522.072C920.085 522.328 920.597 522.456 921.365 522.456H924.309C925.077 522.456 925.589 522.328 925.845 522.072C926.101 521.816 926.229 521.304 926.229 520.536V517.976H931.861V521.368C931.861 525.123 929.877 527 925.909 527H919.765C915.797 527 913.813 525.123 913.813 521.368V501.464C913.813 497.667 915.797 495.768 919.765 495.768ZM919.445 508.952H926.357V502.168C926.357 501.443 926.229 500.952 925.973 500.696C925.76 500.44 925.269 500.312 924.501 500.312H921.365C920.597 500.312 920.085 500.44 919.829 500.696C919.573 500.952 919.445 501.443 919.445 502.168V508.952ZM958.286 520.472V510.68C958.286 509.912 958.158 509.421 957.902 509.208C957.688 508.952 957.198 508.824 956.43 508.824H951.694C947.811 508.824 945.87 506.925 945.87 503.128V492.568C945.87 488.813 947.854 486.936 951.822 486.936H958.094C962.062 486.936 964.046 488.813 964.046 492.568V498.456H958.222V493.464C958.222 492.696 958.094 492.205 957.838 491.992C957.582 491.736 957.07 491.608 956.302 491.608H953.614C952.846 491.608 952.334 491.736 952.078 491.992C951.822 492.205 951.694 492.696 951.694 493.464V502.36C951.694 503.128 951.822 503.64 952.078 503.896C952.334 504.109 952.846 504.216 953.614 504.216H958.286C962.211 504.216 964.174 506.093 964.174 509.848V521.368C964.174 525.123 962.168 527 958.158 527H951.95C947.982 527 945.998 525.123 945.998 521.368V515.48H951.822V520.472C951.822 521.24 951.95 521.752 952.206 522.008C952.462 522.221 952.974 522.328 953.742 522.328H956.43C957.198 522.328 957.688 522.221 957.902 522.008C958.158 521.752 958.286 521.24 958.286 520.472ZM979.939 500.44H975.651V520.216C975.651 520.984 975.757 521.496 975.97 521.752C976.227 521.965 976.739 522.072 977.507 522.072H979.939V527H975.843C971.832 527 969.827 525.123 969.827 521.368V500.44H966.883V495.768H969.827V490.456H975.651V495.768H979.939V500.44ZM995.347 495.768H1001.11V527H995.347V524.504C994.792 526.168 993.469 527 991.379 527H989.075C985.235 527 983.315 525.123 983.315 521.368V495.768H989.075V520.472C989.075 521.24 989.203 521.752 989.459 522.008C989.715 522.221 990.227 522.328 990.995 522.328H993.235C994.003 522.328 994.536 522.157 994.835 521.816C995.176 521.475 995.347 520.899 995.347 520.088V495.768ZM1018.4 484.184H1024.16V527H1018.4V524.504C1017.85 526.168 1016.52 527 1014.43 527H1012.13C1008.29 527 1006.37 525.123 1006.37 521.368V501.4C1006.37 497.603 1008.29 495.704 1012.13 495.704H1014.43C1016.52 495.704 1017.85 496.536 1018.4 498.2V484.184ZM1014.05 522.328H1016.29C1017.06 522.328 1017.59 522.157 1017.89 521.816C1018.23 521.475 1018.4 520.899 1018.4 520.088V502.616C1018.4 501.805 1018.23 501.229 1017.89 500.888C1017.59 500.547 1017.06 500.376 1016.29 500.376H1014.05C1013.28 500.376 1012.77 500.504 1012.51 500.76C1012.26 501.016 1012.13 501.507 1012.13 502.232V520.472C1012.13 521.24 1012.26 521.752 1012.51 522.008C1012.77 522.221 1013.28 522.328 1014.05 522.328ZM1035.64 495.768H1041.91C1045.92 495.768 1047.93 497.667 1047.93 501.464V513.176H1035.32V520.6C1035.32 521.325 1035.45 521.816 1035.7 522.072C1035.96 522.328 1036.47 522.456 1037.24 522.456H1040.18C1040.95 522.456 1041.46 522.328 1041.72 522.072C1041.98 521.816 1042.1 521.304 1042.1 520.536V517.976H1047.74V521.368C1047.74 525.123 1045.75 527 1041.78 527H1035.64C1031.67 527 1029.69 525.123 1029.69 521.368V501.464C1029.69 497.667 1031.67 495.768 1035.64 495.768ZM1035.32 508.952H1042.23V502.168C1042.23 501.443 1042.1 500.952 1041.85 500.696C1041.63 500.44 1041.14 500.312 1040.38 500.312H1037.24C1036.47 500.312 1035.96 500.44 1035.7 500.696C1035.45 500.952 1035.32 501.443 1035.32 502.168V508.952ZM1062.61 495.768H1064.85C1068.73 495.768 1070.67 497.667 1070.67 501.464V527H1064.91V502.296C1064.91 501.528 1064.78 501.037 1064.53 500.824C1064.27 500.568 1063.76 500.44 1062.99 500.44H1060.75C1059.98 500.44 1059.43 500.611 1059.09 500.952C1058.79 501.293 1058.64 501.869 1058.64 502.68V527H1052.88V495.768H1058.64V498.264C1059.19 496.6 1060.52 495.768 1062.61 495.768ZM1086.81 500.44H1082.53V520.216C1082.53 520.984 1082.63 521.496 1082.85 521.752C1083.1 521.965 1083.61 522.072 1084.38 522.072H1086.81V527H1082.72C1078.71 527 1076.7 525.123 1076.7 521.368V500.44H1073.76V495.768H1076.7V490.456H1082.53V495.768H1086.81V500.44Z" fill="white"/>
<rect width="1512" height="70" fill="white" fill-opacity="0.04"/>
<path fill-rule="evenodd" clip-rule="evenodd" d="M1305.16 31.8571C1305.16 23.6518 1298.23 17 1289.68 17C1281.14 17 1274.21 23.6518 1274.21 31.8571C1274.21 40.0625 1281.14 46.7143 1289.68 46.7143C1293.21 46.7143 1296.46 45.5833 1299.06 43.6818L1310.24 54.4142C1311.05 55.1953 1312.37 55.1953 1313.18 54.4142C1314 53.6332 1314 52.3668 1313.18 51.5858L1302 40.8533C1303.98 38.3571 1305.16 35.2379 1305.16 31.8571ZM1289.68 21C1295.93 21 1300.99 25.8609 1300.99 31.8571C1300.99 34.8558 1299.73 37.5674 1297.68 39.5343C1295.63 41.5012 1292.81 42.7143 1289.68 42.7143C1283.44 42.7143 1278.38 37.8534 1278.38 31.8571C1278.38 25.8609 1283.44 21 1289.68 21Z" fill="white"/>
<path fill-rule="evenodd" clip-rule="evenodd" d="M1437.26 21.7416C1434.82 19.3009 1430.86 19.3009 1428.42 21.7416L1421.79 28.3708C1419.35 30.8115 1419.35 34.7688 1421.79 37.2096C1422.6 38.0232 1422.6 39.3423 1421.79 40.1559C1420.98 40.9695 1419.66 40.9695 1418.84 40.1559C1414.78 36.0879 1414.78 29.4924 1418.84 25.4245L1425.47 18.7954C1429.54 14.7274 1436.14 14.7274 1440.2 18.7954C1444.27 22.8633 1444.27 29.4588 1440.2 33.5267C1439.39 34.3403 1438.07 34.3403 1437.26 33.5267C1436.44 32.7132 1436.44 31.3941 1437.26 30.5805C1439.7 28.1397 1439.7 24.1824 1437.26 21.7416ZM1426.21 29.8439C1427.02 29.0303 1428.34 29.0303 1429.16 29.8439C1433.22 33.9119 1433.22 40.5073 1429.16 44.5753L1422.53 51.2044C1418.46 55.2724 1411.86 55.2724 1407.8 51.2044C1403.73 47.1365 1403.73 40.541 1407.8 36.473C1408.61 35.6594 1409.93 35.6594 1410.74 36.473C1411.56 37.2866 1411.56 38.6057 1410.74 39.4193C1408.3 41.8601 1408.3 45.8174 1410.74 48.2581C1413.18 50.6989 1417.14 50.6989 1419.58 48.2581L1426.21 41.629C1428.65 39.1882 1428.65 35.231 1426.21 32.7902C1425.4 31.9766 1425.4 30.6575 1426.21 29.8439Z" fill="white"/>
<rect x="871" y="17" width="374" height="39" rx="19.5" fill="white" fill-opacity="0.03"/>
<rect x="871.5" y="17.5" width="373" height="38" rx="19" stroke="white" stroke-opacity="0.11"/>
</svg>
