<svg width="1512" height="982" viewBox="0 0 1512 982" fill="none" xmlns="http://www.w3.org/2000/svg">
<rect width="1512" height="982" fill="#353535"/>
<path d="M1424.67 91.904H1433.41V143.552C1433.41 149.184 1430.4 152 1424.38 152H1413.73C1407.71 152 1404.7 149.184 1404.7 143.552V91.904H1413.44V142.208C1413.44 143.36 1413.63 144.128 1414.02 144.512C1414.4 144.832 1415.17 144.992 1416.32 144.992H1421.79C1423.01 144.992 1423.78 144.832 1424.1 144.512C1424.48 144.128 1424.67 143.36 1424.67 142.208V91.904ZM1443.15 91.904H1462.83C1468.78 91.904 1471.76 94.72 1471.76 100.352V120.32C1471.76 125.952 1468.78 128.768 1462.83 128.768H1451.79V152H1443.15V91.904ZM1463.12 118.976V101.696C1463.12 100.544 1462.92 99.808 1462.54 99.488C1462.16 99.104 1461.39 98.912 1460.24 98.912H1451.79V121.856H1460.24C1461.39 121.856 1462.16 121.664 1462.54 121.28C1462.92 120.896 1463.12 120.128 1463.12 118.976Z" fill="white"/>
<rect width="1512" height="70" fill="white" fill-opacity="0.04"/>
<path fill-rule="evenodd" clip-rule="evenodd" d="M1305.16 31.8571C1305.16 23.6518 1298.23 17 1289.68 17C1281.14 17 1274.21 23.6518 1274.21 31.8571C1274.21 40.0625 1281.14 46.7143 1289.68 46.7143C1293.21 46.7143 1296.46 45.5833 1299.06 43.6818L1310.24 54.4142C1311.05 55.1953 1312.37 55.1953 1313.18 54.4142C1314 53.6332 1314 52.3668 1313.18 51.5858L1302 40.8533C1303.98 38.3571 1305.16 35.2379 1305.16 31.8571ZM1289.68 21C1295.93 21 1300.99 25.8609 1300.99 31.8571C1300.99 34.8558 1299.73 37.5674 1297.68 39.5343C1295.63 41.5012 1292.81 42.7143 1289.68 42.7143C1283.44 42.7143 1278.38 37.8534 1278.38 31.8571C1278.38 25.8609 1283.44 21 1289.68 21Z" fill="white"/>
<path fill-rule="evenodd" clip-rule="evenodd" d="M1437.26 21.7416C1434.82 19.3009 1430.86 19.3009 1428.42 21.7416L1421.79 28.3708C1419.35 30.8115 1419.35 34.7688 1421.79 37.2096C1422.6 38.0232 1422.6 39.3423 1421.79 40.1559C1420.98 40.9695 1419.66 40.9695 1418.84 40.1559C1414.78 36.0879 1414.78 29.4924 1418.84 25.4245L1425.47 18.7954C1429.54 14.7274 1436.14 14.7274 1440.2 18.7954C1444.27 22.8633 1444.27 29.4588 1440.2 33.5267C1439.39 34.3403 1438.07 34.3403 1437.26 33.5267C1436.44 32.7132 1436.44 31.3941 1437.26 30.5805C1439.7 28.1397 1439.7 24.1824 1437.26 21.7416ZM1426.21 29.8439C1427.02 29.0303 1428.34 29.0303 1429.16 29.8439C1433.22 33.9119 1433.22 40.5073 1429.16 44.5753L1422.53 51.2044C1418.46 55.2724 1411.86 55.2724 1407.8 51.2044C1403.73 47.1365 1403.73 40.541 1407.8 36.473C1408.61 35.6594 1409.93 35.6594 1410.74 36.473C1411.56 37.2866 1411.56 38.6057 1410.74 39.4193C1408.3 41.8601 1408.3 45.8174 1410.74 48.2581C1413.18 50.6989 1417.14 50.6989 1419.58 48.2581L1426.21 41.629C1428.65 39.1882 1428.65 35.231 1426.21 32.7902C1425.4 31.9766 1425.4 30.6575 1426.21 29.8439Z" fill="white"/>
<rect x="871" y="17" width="374" height="39" rx="19.5" fill="white" fill-opacity="0.03"/>
<rect x="871.5" y="17.5" width="373" height="38" rx="19" stroke="white" stroke-opacity="0.11"/>
</svg>
