<svg width="1512" height="982" viewBox="0 0 1512 982" fill="none" xmlns="http://www.w3.org/2000/svg">
<rect width="1512" height="982" fill="#353535"/>
<path d="M578.072 522L575.672 508.08H563L560.792 522H552.152L562.808 461.904H575.384L586.808 522H578.072ZM564.056 501.072H574.52L569.048 469.392L564.056 501.072ZM606.754 475.152H610.114C615.938 475.152 618.85 478 618.85 483.696V522H610.21V484.944C610.21 483.792 610.018 483.056 609.634 482.736C609.25 482.352 608.482 482.16 607.33 482.16H603.97C602.818 482.16 601.986 482.416 601.474 482.928C601.026 483.44 600.802 484.304 600.802 485.52V522H592.162V475.152H600.802V478.896C601.634 476.4 603.618 475.152 606.754 475.152ZM644.696 457.776H653.336V522H644.696V518.256C643.864 520.752 641.88 522 638.744 522H635.288C629.528 522 626.648 519.184 626.648 513.552V483.6C626.648 477.904 629.528 475.056 635.288 475.056H638.744C641.88 475.056 643.864 476.304 644.696 478.8V457.776ZM638.168 514.992H641.528C642.68 514.992 643.48 514.736 643.928 514.224C644.44 513.712 644.696 512.848 644.696 511.632V485.424C644.696 484.208 644.44 483.344 643.928 482.832C643.48 482.32 642.68 482.064 641.528 482.064H638.168C637.016 482.064 636.248 482.256 635.864 482.64C635.48 483.024 635.288 483.76 635.288 484.848V512.208C635.288 513.36 635.48 514.128 635.864 514.512C636.248 514.832 637.016 514.992 638.168 514.992ZM678.042 475.056H679.962V482.544H676.506C672.474 482.544 670.458 484.912 670.458 489.648V522H661.818V475.152H670.458V480.912C670.97 479.248 671.866 477.872 673.146 476.784C674.49 475.632 676.122 475.056 678.042 475.056ZM693.045 475.152H703.317C709.269 475.152 712.245 478 712.245 483.696V513.552C712.245 519.184 709.269 522 703.317 522H693.045C687.157 522 684.213 519.184 684.213 513.552V483.696C684.213 478 687.157 475.152 693.045 475.152ZM703.701 512.304V484.848C703.701 483.696 703.509 482.928 703.125 482.544C702.741 482.16 701.973 481.968 700.821 481.968H695.541C694.389 481.968 693.621 482.16 693.237 482.544C692.917 482.928 692.757 483.696 692.757 484.848V512.304C692.757 513.456 692.917 514.224 693.237 514.608C693.621 514.992 694.389 515.184 695.541 515.184H700.821C701.973 515.184 702.741 514.992 703.125 514.608C703.509 514.224 703.701 513.456 703.701 512.304ZM720.032 466.224V457.68H729.056V466.224H720.032ZM728.864 522H720.224V475.152H728.864V522ZM754.759 457.776H763.399V522H754.759V518.256C753.927 520.752 751.943 522 748.807 522H745.351C739.591 522 736.711 519.184 736.711 513.552V483.6C736.711 477.904 739.591 475.056 745.351 475.056H748.807C751.943 475.056 753.927 476.304 754.759 478.8V457.776ZM748.231 514.992H751.591C752.743 514.992 753.543 514.736 753.991 514.224C754.503 513.712 754.759 512.848 754.759 511.632V485.424C754.759 484.208 754.503 483.344 753.991 482.832C753.543 482.32 752.743 482.064 751.591 482.064H748.231C747.079 482.064 746.311 482.256 745.927 482.64C745.543 483.024 745.351 483.76 745.351 484.848V512.208C745.351 513.36 745.543 514.128 745.927 514.512C746.311 514.832 747.079 514.992 748.231 514.992ZM803.803 512.208V497.52C803.803 496.368 803.611 495.632 803.227 495.312C802.907 494.928 802.171 494.736 801.019 494.736H793.915C788.091 494.736 785.179 491.888 785.179 486.192V470.352C785.179 464.72 788.155 461.904 794.107 461.904H803.515C809.467 461.904 812.443 464.72 812.443 470.352V479.184H803.707V471.696C803.707 470.544 803.515 469.808 803.131 469.488C802.747 469.104 801.979 468.912 800.827 468.912H796.795C795.643 468.912 794.875 469.104 794.491 469.488C794.107 469.808 793.915 470.544 793.915 471.696V485.04C793.915 486.192 794.107 486.96 794.491 487.344C794.875 487.664 795.643 487.824 796.795 487.824H803.803C809.691 487.824 812.635 490.64 812.635 496.272V513.552C812.635 519.184 809.627 522 803.611 522H794.299C788.347 522 785.371 519.184 785.371 513.552V504.72H794.107V512.208C794.107 513.36 794.299 514.128 794.683 514.512C795.067 514.832 795.835 514.992 796.987 514.992H801.019C802.171 514.992 802.907 514.832 803.227 514.512C803.611 514.128 803.803 513.36 803.803 512.208ZM836.283 482.16H829.851V511.824C829.851 512.976 830.011 513.744 830.331 514.128C830.715 514.448 831.483 514.608 832.635 514.608H836.283V522H830.139C824.123 522 821.115 519.184 821.115 513.552V482.16H816.699V475.152H821.115V467.184H829.851V475.152H836.283V482.16ZM859.395 475.152H868.035V522H859.395V518.256C858.563 520.752 856.579 522 853.443 522H849.987C844.227 522 841.347 519.184 841.347 513.552V475.152H849.987V512.208C849.987 513.36 850.179 514.128 850.563 514.512C850.947 514.832 851.715 514.992 852.867 514.992H856.227C857.379 514.992 858.179 514.736 858.627 514.224C859.139 513.712 859.395 512.848 859.395 511.632V475.152ZM893.977 457.776H902.617V522H893.977V518.256C893.145 520.752 891.161 522 888.025 522H884.569C878.809 522 875.929 519.184 875.929 513.552V483.6C875.929 477.904 878.809 475.056 884.569 475.056H888.025C891.161 475.056 893.145 476.304 893.977 478.8V457.776ZM887.449 514.992H890.809C891.961 514.992 892.761 514.736 893.209 514.224C893.721 513.712 893.977 512.848 893.977 511.632V485.424C893.977 484.208 893.721 483.344 893.209 482.832C892.761 482.32 891.961 482.064 890.809 482.064H887.449C886.297 482.064 885.529 482.256 885.145 482.64C884.761 483.024 884.569 483.76 884.569 484.848V512.208C884.569 513.36 884.761 514.128 885.145 514.512C885.529 514.832 886.297 514.992 887.449 514.992ZM910.907 466.224V457.68H919.931V466.224H910.907ZM919.739 522H911.099V475.152H919.739V522ZM936.514 475.152H946.786C952.738 475.152 955.714 478 955.714 483.696V513.552C955.714 519.184 952.738 522 946.786 522H936.514C930.626 522 927.682 519.184 927.682 513.552V483.696C927.682 478 930.626 475.152 936.514 475.152ZM947.17 512.304V484.848C947.17 483.696 946.978 482.928 946.594 482.544C946.21 482.16 945.442 481.968 944.29 481.968H939.01C937.858 481.968 937.09 482.16 936.706 482.544C936.386 482.928 936.226 483.696 936.226 484.848V512.304C936.226 513.456 936.386 514.224 936.706 514.608C937.09 514.992 937.858 515.184 939.01 515.184H944.29C945.442 515.184 946.21 514.992 946.594 514.608C946.978 514.224 947.17 513.456 947.17 512.304Z" fill="white"/>
<path d="M845.526 773.792C844.614 772.856 844.158 771.74 844.158 770.444C844.158 769.148 844.614 768.044 845.526 767.132C846.462 766.196 847.578 765.728 848.874 765.728C850.17 765.728 851.274 766.196 852.186 767.132C853.122 768.044 853.59 769.148 853.59 770.444C853.59 771.74 853.122 772.856 852.186 773.792C851.274 774.704 850.17 775.16 848.874 775.16C847.578 775.16 846.462 774.704 845.526 773.792ZM884.199 764.432H887.439V782H884.199V780.596C883.887 781.532 883.143 782 881.967 782H880.671C878.511 782 877.431 780.944 877.431 778.832V764.432H880.671V778.328C880.671 778.76 880.743 779.048 880.887 779.192C881.031 779.312 881.319 779.372 881.751 779.372H883.011C883.443 779.372 883.743 779.276 883.911 779.084C884.103 778.892 884.199 778.568 884.199 778.112V764.432ZM896.483 778.472V775.556C896.483 775.124 896.411 774.848 896.267 774.728C896.123 774.584 895.835 774.512 895.403 774.512H893.567C891.335 774.512 890.219 773.456 890.219 771.344V767.636C890.219 765.5 891.335 764.432 893.567 764.432H896.195C898.451 764.432 899.579 765.5 899.579 767.636V769.328H896.411V767.96C896.411 767.528 896.339 767.252 896.195 767.132C896.051 766.988 895.763 766.916 895.331 766.916H894.467C894.035 766.916 893.747 766.988 893.603 767.132C893.459 767.252 893.387 767.528 893.387 767.96V770.984C893.387 771.416 893.459 771.704 893.603 771.848C893.747 771.968 894.035 772.028 894.467 772.028H896.339C898.547 772.028 899.651 773.096 899.651 775.232V778.832C899.651 780.944 898.535 782 896.303 782H893.639C891.407 782 890.291 780.944 890.291 778.832V777.104H893.459V778.472C893.459 778.904 893.531 779.192 893.675 779.336C893.819 779.456 894.107 779.516 894.539 779.516H895.403C895.835 779.516 896.123 779.456 896.267 779.336C896.411 779.192 896.483 778.904 896.483 778.472ZM902.356 761.084V757.88H905.74V761.084H902.356ZM905.668 782H902.428V764.432H905.668V782ZM914.298 764.432H915.558C917.742 764.432 918.834 765.5 918.834 767.636V782H915.594V768.104C915.594 767.672 915.522 767.396 915.378 767.276C915.234 767.132 914.946 767.06 914.514 767.06H913.254C912.822 767.06 912.51 767.156 912.318 767.348C912.15 767.54 912.066 767.864 912.066 768.32V782H908.826V764.432H912.066V765.836C912.378 764.9 913.122 764.432 914.298 764.432ZM928.527 764.432H931.767V783.8C931.767 785.912 930.639 786.968 928.383 786.968H922.371V784.412H927.447C927.879 784.412 928.167 784.34 928.311 784.196C928.455 784.052 928.527 783.776 928.527 783.368V780.38C928.215 781.316 927.471 781.784 926.295 781.784H924.999C922.839 781.784 921.759 780.716 921.759 778.58V767.636C921.759 765.5 922.839 764.432 924.999 764.432H926.295C927.471 764.432 928.215 764.9 928.527 765.836V764.432ZM926.079 779.156H927.339C927.771 779.156 928.071 779.06 928.239 778.868C928.431 778.676 928.527 778.352 928.527 777.896V768.32C928.527 767.864 928.431 767.54 928.239 767.348C928.071 767.156 927.771 767.06 927.339 767.06H926.079C925.647 767.06 925.359 767.132 925.215 767.276C925.071 767.396 924.999 767.672 924.999 768.104V778.112C924.999 778.52 925.071 778.796 925.215 778.94C925.359 779.084 925.647 779.156 926.079 779.156ZM540.51 825.792C539.598 824.856 539.142 823.74 539.142 822.444C539.142 821.148 539.598 820.044 540.51 819.132C541.446 818.196 542.562 817.728 543.858 817.728C545.154 817.728 546.258 818.196 547.17 819.132C548.106 820.044 548.574 821.148 548.574 822.444C548.574 823.74 548.106 824.856 547.17 825.792C546.258 826.704 545.154 827.16 543.858 827.16C542.562 827.16 541.446 826.704 540.51 825.792ZM582.567 814.092H576.015V821.508H581.199V824.064H576.015V834H572.739V811.464H582.567V814.092ZM590.488 816.396H591.208V819.204H589.912C588.4 819.204 587.644 820.092 587.644 821.868V834H584.404V816.432H587.644V818.592C587.836 817.968 588.172 817.452 588.652 817.044C589.156 816.612 589.768 816.396 590.488 816.396ZM596.114 816.432H599.966C602.198 816.432 603.314 817.5 603.314 819.636V830.832C603.314 832.944 602.198 834 599.966 834H596.114C593.906 834 592.802 832.944 592.802 830.832V819.636C592.802 817.5 593.906 816.432 596.114 816.432ZM600.11 830.364V820.068C600.11 819.636 600.038 819.348 599.894 819.204C599.75 819.06 599.462 818.988 599.03 818.988H597.05C596.618 818.988 596.33 819.06 596.186 819.204C596.066 819.348 596.006 819.636 596.006 820.068V830.364C596.006 830.796 596.066 831.084 596.186 831.228C596.33 831.372 596.618 831.444 597.05 831.444H599.03C599.462 831.444 599.75 831.372 599.894 831.228C600.038 831.084 600.11 830.796 600.11 830.364ZM611.779 816.432H613.039C615.223 816.432 616.315 817.5 616.315 819.636V834H613.075V820.104C613.075 819.672 613.003 819.396 612.859 819.276C612.715 819.132 612.427 819.06 611.995 819.06H610.735C610.303 819.06 609.991 819.156 609.799 819.348C609.631 819.54 609.547 819.864 609.547 820.32V834H606.307V816.432H609.547V817.836C609.859 816.9 610.603 816.432 611.779 816.432ZM625.395 819.06H622.983V830.184C622.983 830.616 623.043 830.904 623.163 831.048C623.307 831.168 623.595 831.228 624.027 831.228H625.395V834H623.091C620.835 834 619.707 832.944 619.707 830.832V819.06H618.051V816.432H619.707V813.444H622.983V816.432H625.395V819.06ZM630.606 816.432H634.134C636.39 816.432 637.518 817.5 637.518 819.636V826.224H630.426V830.4C630.426 830.808 630.498 831.084 630.642 831.228C630.786 831.372 631.074 831.444 631.506 831.444H633.162C633.594 831.444 633.882 831.372 634.026 831.228C634.17 831.084 634.242 830.796 634.242 830.364V828.924H637.41V830.832C637.41 832.944 636.294 834 634.062 834H630.606C628.374 834 627.258 832.944 627.258 830.832V819.636C627.258 817.5 628.374 816.432 630.606 816.432ZM630.426 823.848H634.314V820.032C634.314 819.624 634.242 819.348 634.098 819.204C633.978 819.06 633.702 818.988 633.27 818.988H631.506C631.074 818.988 630.786 819.06 630.642 819.204C630.498 819.348 630.426 819.624 630.426 820.032V823.848ZM645.775 816.432H647.035C649.219 816.432 650.311 817.5 650.311 819.636V834H647.071V820.104C647.071 819.672 646.999 819.396 646.855 819.276C646.711 819.132 646.423 819.06 645.991 819.06H644.731C644.299 819.06 643.987 819.156 643.795 819.348C643.627 819.54 643.543 819.864 643.543 820.32V834H640.303V816.432H643.543V817.836C643.855 816.9 644.599 816.432 645.775 816.432ZM660.003 809.916H663.243V834H660.003V832.596C659.691 833.532 658.947 834 657.771 834H656.475C654.315 834 653.235 832.944 653.235 830.832V819.6C653.235 817.464 654.315 816.396 656.475 816.396H657.771C658.947 816.396 659.691 816.864 660.003 817.8V809.916ZM657.555 831.372H658.815C659.247 831.372 659.547 831.276 659.715 831.084C659.907 830.892 660.003 830.568 660.003 830.112V820.284C660.003 819.828 659.907 819.504 659.715 819.312C659.547 819.12 659.247 819.024 658.815 819.024H657.555C657.123 819.024 656.835 819.096 656.691 819.24C656.547 819.384 656.475 819.66 656.475 820.068V830.328C656.475 830.76 656.547 831.048 656.691 831.192C656.835 831.312 657.123 831.372 657.555 831.372ZM678.179 809.916H681.419V834H678.179V832.596C677.867 833.532 677.123 834 675.947 834H674.651C672.491 834 671.411 832.944 671.411 830.832V819.6C671.411 817.464 672.491 816.396 674.651 816.396H675.947C677.123 816.396 677.867 816.864 678.179 817.8V809.916ZM675.731 831.372H676.991C677.423 831.372 677.723 831.276 677.891 831.084C678.083 830.892 678.179 830.568 678.179 830.112V820.284C678.179 819.828 678.083 819.504 677.891 819.312C677.723 819.12 677.423 819.024 676.991 819.024H675.731C675.299 819.024 675.011 819.096 674.867 819.24C674.723 819.384 674.651 819.66 674.651 820.068V830.328C674.651 830.76 674.723 831.048 674.867 831.192C675.011 831.312 675.299 831.372 675.731 831.372ZM687.876 816.432H691.404C693.66 816.432 694.788 817.5 694.788 819.636V826.224H687.696V830.4C687.696 830.808 687.768 831.084 687.912 831.228C688.056 831.372 688.344 831.444 688.776 831.444H690.432C690.864 831.444 691.152 831.372 691.296 831.228C691.44 831.084 691.512 830.796 691.512 830.364V828.924H694.68V830.832C694.68 832.944 693.564 834 691.332 834H687.876C685.644 834 684.528 832.944 684.528 830.832V819.636C684.528 817.5 685.644 816.432 687.876 816.432ZM687.696 823.848H691.584V820.032C691.584 819.624 691.512 819.348 691.368 819.204C691.248 819.06 690.972 818.988 690.54 818.988H688.776C688.344 818.988 688.056 819.06 687.912 819.204C687.768 819.348 687.696 819.624 687.696 820.032V823.848ZM699.372 816.432L701.676 831.264L704.016 816.432H707.256L704.016 834H699.372L696.132 816.432H699.372ZM712.274 816.432H715.802C718.058 816.432 719.186 817.5 719.186 819.636V826.224H712.094V830.4C712.094 830.808 712.166 831.084 712.31 831.228C712.454 831.372 712.742 831.444 713.174 831.444H714.83C715.262 831.444 715.55 831.372 715.694 831.228C715.838 831.084 715.91 830.796 715.91 830.364V828.924H719.078V830.832C719.078 832.944 717.962 834 715.73 834H712.274C710.042 834 708.926 832.944 708.926 830.832V819.636C708.926 817.5 710.042 816.432 712.274 816.432ZM712.094 823.848H715.982V820.032C715.982 819.624 715.91 819.348 715.766 819.204C715.646 819.06 715.37 818.988 714.938 818.988H713.174C712.742 818.988 712.454 819.06 712.31 819.204C712.166 819.348 712.094 819.624 712.094 820.032V823.848ZM725.211 834H721.971V809.916H725.211V834ZM731.501 816.432H735.353C737.585 816.432 738.701 817.5 738.701 819.636V830.832C738.701 832.944 737.585 834 735.353 834H731.501C729.293 834 728.189 832.944 728.189 830.832V819.636C728.189 817.5 729.293 816.432 731.501 816.432ZM735.497 830.364V820.068C735.497 819.636 735.425 819.348 735.281 819.204C735.137 819.06 734.849 818.988 734.417 818.988H732.437C732.005 818.988 731.717 819.06 731.573 819.204C731.453 819.348 731.393 819.636 731.393 820.068V830.364C731.393 830.796 731.453 831.084 731.573 831.228C731.717 831.372 732.005 831.444 732.437 831.444H734.417C734.849 831.444 735.137 831.372 735.281 831.228C735.425 831.084 735.497 830.796 735.497 830.364ZM747.165 816.432H748.425C750.609 816.432 751.701 817.5 751.701 819.636V830.832C751.701 832.944 750.609 834 748.425 834H747.165C745.989 834 745.245 833.532 744.933 832.596V838.968H741.693V816.432H744.933V817.836C745.245 816.9 745.989 816.432 747.165 816.432ZM748.461 830.328V820.104C748.461 819.672 748.389 819.396 748.245 819.276C748.101 819.132 747.813 819.06 747.381 819.06H746.121C745.689 819.06 745.377 819.156 745.185 819.348C745.017 819.54 744.933 819.864 744.933 820.32V830.112C744.933 830.568 745.017 830.892 745.185 831.084C745.377 831.276 745.689 831.372 746.121 831.372H747.381C747.813 831.372 748.101 831.312 748.245 831.192C748.389 831.048 748.461 830.76 748.461 830.328ZM766.906 816.432H768.166C770.326 816.432 771.406 817.5 771.406 819.636V834H768.166V820.104C768.166 819.672 768.094 819.396 767.95 819.276C767.83 819.132 767.554 819.06 767.122 819.06H765.826C765.058 819.06 764.674 819.48 764.674 820.32V834H761.434V820.104C761.434 819.672 761.362 819.396 761.218 819.276C761.074 819.132 760.786 819.06 760.354 819.06H759.094C758.662 819.06 758.35 819.156 758.158 819.348C757.99 819.54 757.906 819.864 757.906 820.32V834H754.666V816.432H757.906V817.836C758.218 816.9 758.962 816.432 760.138 816.432H761.398C762.934 816.432 763.93 816.972 764.386 818.052C764.674 816.972 765.514 816.432 766.906 816.432ZM777.665 816.432H781.193C783.449 816.432 784.577 817.5 784.577 819.636V826.224H777.485V830.4C777.485 830.808 777.557 831.084 777.701 831.228C777.845 831.372 778.133 831.444 778.565 831.444H780.221C780.653 831.444 780.941 831.372 781.085 831.228C781.229 831.084 781.301 830.796 781.301 830.364V828.924H784.469V830.832C784.469 832.944 783.353 834 781.121 834H777.665C775.433 834 774.317 832.944 774.317 830.832V819.636C774.317 817.5 775.433 816.432 777.665 816.432ZM777.485 823.848H781.373V820.032C781.373 819.624 781.301 819.348 781.157 819.204C781.037 819.06 780.761 818.988 780.329 818.988H778.565C778.133 818.988 777.845 819.06 777.701 819.204C777.557 819.348 777.485 819.624 777.485 820.032V823.848ZM792.833 816.432H794.093C796.277 816.432 797.369 817.5 797.369 819.636V834H794.129V820.104C794.129 819.672 794.057 819.396 793.913 819.276C793.769 819.132 793.481 819.06 793.049 819.06H791.789C791.357 819.06 791.045 819.156 790.853 819.348C790.685 819.54 790.601 819.864 790.601 820.32V834H787.361V816.432H790.601V817.836C790.913 816.9 791.657 816.432 792.833 816.432ZM806.45 819.06H804.038V830.184C804.038 830.616 804.098 830.904 804.218 831.048C804.362 831.168 804.65 831.228 805.082 831.228H806.45V834H804.146C801.89 834 800.762 832.944 800.762 830.832V819.06H799.106V816.432H800.762V813.444H804.038V816.432H806.45V819.06ZM819.816 812.652H818.304C817.872 812.652 817.584 812.724 817.44 812.868C817.296 812.988 817.224 813.264 817.224 813.696V816.432H819.816V819.06H817.224V834H813.984V819.06H812.22V816.432H813.984V813.084C813.984 810.972 815.1 809.916 817.332 809.916H819.816V812.652ZM824.7 816.432H828.552C830.784 816.432 831.9 817.5 831.9 819.636V830.832C831.9 832.944 830.784 834 828.552 834H824.7C822.492 834 821.388 832.944 821.388 830.832V819.636C821.388 817.5 822.492 816.432 824.7 816.432ZM828.696 830.364V820.068C828.696 819.636 828.624 819.348 828.48 819.204C828.336 819.06 828.048 818.988 827.616 818.988H825.636C825.204 818.988 824.916 819.06 824.772 819.204C824.652 819.348 824.592 819.636 824.592 820.068V830.364C824.592 830.796 824.652 831.084 824.772 831.228C824.916 831.372 825.204 831.444 825.636 831.444H827.616C828.048 831.444 828.336 831.372 828.48 831.228C828.624 831.084 828.696 830.796 828.696 830.364ZM840.977 816.396H841.697V819.204H840.401C838.889 819.204 838.133 820.092 838.133 821.868V834H834.893V816.432H838.133V818.592C838.325 817.968 838.661 817.452 839.141 817.044C839.645 816.612 840.257 816.396 840.977 816.396ZM855.226 816.432H858.466V834H855.226V832.596C854.914 833.532 854.17 834 852.994 834H851.698C849.538 834 848.458 832.944 848.458 830.832V819.636C848.458 817.5 849.538 816.432 851.698 816.432H852.994C854.17 816.432 854.914 816.9 855.226 817.836V816.432ZM852.778 831.372H854.038C854.47 831.372 854.77 831.276 854.938 831.084C855.13 830.892 855.226 830.568 855.226 830.112V820.32C855.226 819.864 855.13 819.54 854.938 819.348C854.77 819.156 854.47 819.06 854.038 819.06H852.778C852.346 819.06 852.058 819.132 851.914 819.276C851.77 819.396 851.698 819.672 851.698 820.104V830.328C851.698 830.76 851.77 831.048 851.914 831.192C852.058 831.312 852.346 831.372 852.778 831.372ZM867.119 816.432H868.379C870.563 816.432 871.655 817.5 871.655 819.636V834H868.415V820.104C868.415 819.672 868.343 819.396 868.199 819.276C868.055 819.132 867.767 819.06 867.335 819.06H866.075C865.643 819.06 865.331 819.156 865.139 819.348C864.971 819.54 864.887 819.864 864.887 820.32V834H861.647V816.432H864.887V817.836C865.199 816.9 865.943 816.432 867.119 816.432ZM888.566 834L887.666 828.78H882.914L882.086 834H878.846L882.842 811.464H887.558L891.842 834H888.566ZM883.31 826.152H887.234L885.182 814.272L883.31 826.152ZM899.322 816.432H900.582C902.766 816.432 903.858 817.5 903.858 819.636V834H900.618V820.104C900.618 819.672 900.546 819.396 900.402 819.276C900.258 819.132 899.97 819.06 899.538 819.06H898.278C897.846 819.06 897.534 819.156 897.342 819.348C897.174 819.54 897.09 819.864 897.09 820.32V834H893.85V816.432H897.09V817.836C897.402 816.9 898.146 816.432 899.322 816.432ZM913.55 809.916H916.79V834H913.55V832.596C913.238 833.532 912.494 834 911.318 834H910.022C907.862 834 906.782 832.944 906.782 830.832V819.6C906.782 817.464 907.862 816.396 910.022 816.396H911.318C912.494 816.396 913.238 816.864 913.55 817.8V809.916ZM911.102 831.372H912.362C912.794 831.372 913.094 831.276 913.262 831.084C913.454 830.892 913.55 830.568 913.55 830.112V820.284C913.55 819.828 913.454 819.504 913.262 819.312C913.094 819.12 912.794 819.024 912.362 819.024H911.102C910.67 819.024 910.382 819.096 910.238 819.24C910.094 819.384 910.022 819.66 910.022 820.068V830.328C910.022 830.76 910.094 831.048 910.238 831.192C910.382 831.312 910.67 831.372 911.102 831.372ZM926.055 816.396H926.775V819.204H925.479C923.967 819.204 923.211 820.092 923.211 821.868V834H919.971V816.432H923.211V818.592C923.403 817.968 923.739 817.452 924.219 817.044C924.723 816.612 925.335 816.396 926.055 816.396ZM931.681 816.432H935.533C937.765 816.432 938.881 817.5 938.881 819.636V830.832C938.881 832.944 937.765 834 935.533 834H931.681C929.473 834 928.369 832.944 928.369 830.832V819.636C928.369 817.5 929.473 816.432 931.681 816.432ZM935.677 830.364V820.068C935.677 819.636 935.605 819.348 935.461 819.204C935.317 819.06 935.029 818.988 934.597 818.988H932.617C932.185 818.988 931.897 819.06 931.753 819.204C931.633 819.348 931.573 819.636 931.573 820.068V830.364C931.573 830.796 931.633 831.084 931.753 831.228C931.897 831.372 932.185 831.444 932.617 831.444H934.597C935.029 831.444 935.317 831.372 935.461 831.228C935.605 831.084 935.677 830.796 935.677 830.364ZM941.801 813.084V809.88H945.185V813.084H941.801ZM945.113 834H941.873V816.432H945.113V834ZM954.824 809.916H958.064V834H954.824V832.596C954.512 833.532 953.768 834 952.592 834H951.296C949.136 834 948.056 832.944 948.056 830.832V819.6C948.056 817.464 949.136 816.396 951.296 816.396H952.592C953.768 816.396 954.512 816.864 954.824 817.8V809.916ZM952.376 831.372H953.636C954.068 831.372 954.368 831.276 954.536 831.084C954.728 830.892 954.824 830.568 954.824 830.112V820.284C954.824 819.828 954.728 819.504 954.536 819.312C954.368 819.12 954.068 819.024 953.636 819.024H952.376C951.944 819.024 951.656 819.096 951.512 819.24C951.368 819.384 951.296 819.66 951.296 820.068V830.328C951.296 830.76 951.368 831.048 951.512 831.192C951.656 831.312 951.944 831.372 952.376 831.372ZM972.999 816.432H976.239V834H972.999V832.596C972.687 833.532 971.943 834 970.767 834H969.471C967.311 834 966.231 832.944 966.231 830.832V819.636C966.231 817.5 967.311 816.432 969.471 816.432H970.767C971.943 816.432 972.687 816.9 972.999 817.836V816.432ZM970.551 831.372H971.811C972.243 831.372 972.543 831.276 972.711 831.084C972.903 830.892 972.999 830.568 972.999 830.112V820.32C972.999 819.864 972.903 819.54 972.711 819.348C972.543 819.156 972.243 819.06 971.811 819.06H970.551C970.119 819.06 969.831 819.132 969.687 819.276C969.543 819.396 969.471 819.672 969.471 820.104V830.328C969.471 830.76 969.543 831.048 969.687 831.192C969.831 831.312 970.119 831.372 970.551 831.372ZM984.892 816.432H986.152C988.336 816.432 989.428 817.5 989.428 819.636V830.832C989.428 832.944 988.336 834 986.152 834H984.892C983.716 834 982.972 833.532 982.66 832.596V838.968H979.42V816.432H982.66V817.836C982.972 816.9 983.716 816.432 984.892 816.432ZM986.188 830.328V820.104C986.188 819.672 986.116 819.396 985.972 819.276C985.828 819.132 985.54 819.06 985.108 819.06H983.848C983.416 819.06 983.104 819.156 982.912 819.348C982.744 819.54 982.66 819.864 982.66 820.32V830.112C982.66 830.568 982.744 830.892 982.912 831.084C983.104 831.276 983.416 831.372 983.848 831.372H985.108C985.54 831.372 985.828 831.312 985.972 831.192C986.116 831.048 986.188 830.76 986.188 830.328ZM997.865 816.432H999.125C1001.31 816.432 1002.4 817.5 1002.4 819.636V830.832C1002.4 832.944 1001.31 834 999.125 834H997.865C996.689 834 995.945 833.532 995.633 832.596V838.968H992.393V816.432H995.633V817.836C995.945 816.9 996.689 816.432 997.865 816.432ZM999.161 830.328V820.104C999.161 819.672 999.089 819.396 998.945 819.276C998.801 819.132 998.513 819.06 998.081 819.06H996.821C996.389 819.06 996.077 819.156 995.885 819.348C995.717 819.54 995.633 819.864 995.633 820.32V830.112C995.633 830.568 995.717 830.892 995.885 831.084C996.077 831.276 996.389 831.372 996.821 831.372H998.081C998.513 831.372 998.801 831.312 998.945 831.192C999.089 831.048 999.161 830.76 999.161 830.328Z" fill="white"/>
<path d="M951.31 764.432L947.278 772.82L951.31 782H947.854L943.966 772.82L947.854 764.432H951.31ZM940.15 782V757.916H943.39V782H940.15ZM956.15 764.432H960.002C962.234 764.432 963.35 765.5 963.35 767.636V778.832C963.35 780.944 962.234 782 960.002 782H956.15C953.942 782 952.838 780.944 952.838 778.832V767.636C952.838 765.5 953.942 764.432 956.15 764.432ZM960.146 778.364V768.068C960.146 767.636 960.074 767.348 959.93 767.204C959.786 767.06 959.498 766.988 959.066 766.988H957.086C956.654 766.988 956.366 767.06 956.222 767.204C956.102 767.348 956.042 767.636 956.042 768.068V778.364C956.042 778.796 956.102 779.084 956.222 779.228C956.366 779.372 956.654 779.444 957.086 779.444H959.066C959.498 779.444 959.786 779.372 959.93 779.228C960.074 779.084 960.146 778.796 960.146 778.364ZM972.282 767.06H969.87V778.184C969.87 778.616 969.93 778.904 970.05 779.048C970.194 779.168 970.482 779.228 970.914 779.228H972.282V782H969.978C967.722 782 966.594 780.944 966.594 778.832V767.06H964.938V764.432H966.594V761.444H969.87V764.432H972.282V767.06ZM977.457 782H974.217V757.916H977.457V782ZM980.543 761.084V757.88H983.927V761.084H980.543ZM983.855 782H980.615V764.432H983.855V782ZM992.486 764.432H993.746C995.93 764.432 997.022 765.5 997.022 767.636V782H993.782V768.104C993.782 767.672 993.71 767.396 993.566 767.276C993.422 767.132 993.134 767.06 992.702 767.06H991.442C991.01 767.06 990.698 767.156 990.506 767.348C990.338 767.54 990.254 767.864 990.254 768.32V782H987.014V764.432H990.254V765.836C990.566 764.9 991.31 764.432 992.486 764.432Z" fill="#FFFA78"/>
<path d="M663.288 422.464H666.564L662.964 445H658.464L655.944 428.08L653.46 445H648.96L645.36 422.464H648.708L651.228 442.048L654.144 422.464H657.744L660.66 442.048L663.288 422.464ZM673.994 427.432H675.254C677.438 427.432 678.53 428.5 678.53 430.636V445H675.29V431.104C675.29 430.672 675.218 430.396 675.074 430.276C674.93 430.132 674.642 430.06 674.21 430.06H672.95C672.518 430.06 672.206 430.156 672.014 430.348C671.846 430.54 671.762 430.864 671.762 431.32V445H668.522V420.916H671.762V428.836C672.074 427.9 672.818 427.432 673.994 427.432ZM688.222 427.432H691.462V445H688.222V443.596C687.91 444.532 687.166 445 685.99 445H684.694C682.534 445 681.454 443.944 681.454 441.832V430.636C681.454 428.5 682.534 427.432 684.694 427.432H685.99C687.166 427.432 687.91 427.9 688.222 428.836V427.432ZM685.774 442.372H687.034C687.466 442.372 687.766 442.276 687.934 442.084C688.126 441.892 688.222 441.568 688.222 441.112V431.32C688.222 430.864 688.126 430.54 687.934 430.348C687.766 430.156 687.466 430.06 687.034 430.06H685.774C685.342 430.06 685.054 430.132 684.91 430.276C684.766 430.396 684.694 430.672 684.694 431.104V441.328C684.694 441.76 684.766 442.048 684.91 442.192C685.054 442.312 685.342 442.372 685.774 442.372ZM700.583 430.06H698.171V441.184C698.171 441.616 698.231 441.904 698.351 442.048C698.495 442.168 698.783 442.228 699.215 442.228H700.583V445H698.279C696.023 445 694.895 443.944 694.895 441.832V430.06H693.239V427.432H694.895V424.444H698.171V427.432H700.583V430.06ZM708.297 422.464H711.537V445H708.297V422.464ZM714.847 422.464H718.483V424.804L715.963 431.896H714.847V422.464ZM723.056 427.432L725.36 442.264L727.7 427.432H730.94L727.7 445H723.056L719.816 427.432H723.056ZM735.958 427.432H739.486C741.742 427.432 742.87 428.5 742.87 430.636V437.224H735.778V441.4C735.778 441.808 735.85 442.084 735.994 442.228C736.138 442.372 736.426 442.444 736.858 442.444H738.514C738.946 442.444 739.234 442.372 739.378 442.228C739.522 442.084 739.594 441.796 739.594 441.364V439.924H742.762V441.832C742.762 443.944 741.646 445 739.414 445H735.958C733.726 445 732.61 443.944 732.61 441.832V430.636C732.61 428.5 733.726 427.432 735.958 427.432ZM735.778 434.848H739.666V431.032C739.666 430.624 739.594 430.348 739.45 430.204C739.33 430.06 739.054 429.988 738.622 429.988H736.858C736.426 429.988 736.138 430.06 735.994 430.204C735.85 430.348 735.778 430.624 735.778 431.032V434.848ZM757.409 420.916H760.649V445H757.409V443.596C757.097 444.532 756.353 445 755.177 445H753.881C751.721 445 750.641 443.944 750.641 441.832V430.6C750.641 428.464 751.721 427.396 753.881 427.396H755.177C756.353 427.396 757.097 427.864 757.409 428.8V420.916ZM754.961 442.372H756.221C756.653 442.372 756.953 442.276 757.121 442.084C757.313 441.892 757.409 441.568 757.409 441.112V431.284C757.409 430.828 757.313 430.504 757.121 430.312C756.953 430.12 756.653 430.024 756.221 430.024H754.961C754.529 430.024 754.241 430.096 754.097 430.24C753.953 430.384 753.881 430.66 753.881 431.068V441.328C753.881 441.76 753.953 442.048 754.097 442.192C754.241 442.312 754.529 442.372 754.961 442.372ZM766.962 427.432H770.814C773.046 427.432 774.162 428.5 774.162 430.636V441.832C774.162 443.944 773.046 445 770.814 445H766.962C764.754 445 763.65 443.944 763.65 441.832V430.636C763.65 428.5 764.754 427.432 766.962 427.432ZM770.958 441.364V431.068C770.958 430.636 770.886 430.348 770.742 430.204C770.598 430.06 770.31 429.988 769.878 429.988H767.898C767.466 429.988 767.178 430.06 767.034 430.204C766.914 430.348 766.854 430.636 766.854 431.068V441.364C766.854 441.796 766.914 442.084 767.034 442.228C767.178 442.372 767.466 442.444 767.898 442.444H769.878C770.31 442.444 770.598 442.372 770.742 442.228C770.886 442.084 770.958 441.796 770.958 441.364ZM782.626 427.432H783.886C786.07 427.432 787.162 428.5 787.162 430.636V445H783.922V431.104C783.922 430.672 783.85 430.396 783.706 430.276C783.562 430.132 783.274 430.06 782.842 430.06H781.582C781.15 430.06 780.838 430.156 780.646 430.348C780.478 430.54 780.394 430.864 780.394 431.32V445H777.154V427.432H780.394V428.836C780.706 427.9 781.45 427.432 782.626 427.432ZM793.579 427.432H797.107C799.363 427.432 800.491 428.5 800.491 430.636V437.224H793.399V441.4C793.399 441.808 793.471 442.084 793.615 442.228C793.759 442.372 794.047 442.444 794.479 442.444H796.135C796.567 442.444 796.855 442.372 796.999 442.228C797.143 442.084 797.215 441.796 797.215 441.364V439.924H800.383V441.832C800.383 443.944 799.267 445 797.035 445H793.579C791.347 445 790.231 443.944 790.231 441.832V430.636C790.231 428.5 791.347 427.432 793.579 427.432ZM793.399 434.848H797.287V431.032C797.287 430.624 797.215 430.348 797.071 430.204C796.951 430.06 796.675 429.988 796.243 429.988H794.479C794.047 429.988 793.759 430.06 793.615 430.204C793.471 430.348 793.399 430.624 793.399 431.032V434.848ZM823.203 427.432H826.263L823.023 445H818.739L816.651 431.716L814.563 445H810.279L807.075 427.432H810.135L812.475 442.228L814.743 427.432H818.595L820.791 442.228L823.203 427.432ZM827.953 424.084V420.88H831.337V424.084H827.953ZM831.265 445H828.025V427.432H831.265V445ZM840.364 430.06H837.952V441.184C837.952 441.616 838.012 441.904 838.132 442.048C838.276 442.168 838.564 442.228 838.996 442.228H840.364V445H838.06C835.804 445 834.676 443.944 834.676 441.832V430.06H833.02V427.432H834.676V424.444H837.952V427.432H840.364V430.06ZM847.771 427.432H849.031C851.215 427.432 852.307 428.5 852.307 430.636V445H849.067V431.104C849.067 430.672 848.995 430.396 848.851 430.276C848.707 430.132 848.419 430.06 847.987 430.06H846.727C846.295 430.06 845.983 430.156 845.791 430.348C845.623 430.54 845.539 430.864 845.539 431.32V445H842.299V420.916H845.539V428.836C845.851 427.9 846.595 427.432 847.771 427.432Z" fill="white"/>
<g clip-path="url(#clip0_7_6711)">
<mask id="mask0_7_6711" style="mask-type:luminance" maskUnits="userSpaceOnUse" x="1085" y="522" width="301" height="332">
<path d="M1386 675.391C1386 590.683 1318.61 522 1235.5 522C1152.39 522 1085 590.683 1085 675.391C1085 721.973 1105.4 763.671 1137.56 791.786L1119.5 823.655V848.964C1119.5 851.184 1121.28 853.001 1123.46 853.001C1124.19 853.001 1124.86 852.799 1125.46 852.456L1146.94 839.821L1163.72 810.233C1185.04 822.06 1209.5 828.781 1235.5 828.781C1261.5 828.781 1285.96 822.06 1307.3 810.233L1324.08 839.821L1345.56 852.456C1346.16 852.799 1346.83 853.001 1347.56 853.001C1349.74 853.001 1351.52 851.184 1351.52 848.964V823.655L1333.46 791.786C1365.6 763.671 1386 721.973 1386 675.391V675.391Z" fill="white"/>
</mask>
<g mask="url(#mask0_7_6711)">
<path d="M1235.5 828.781C1318.62 828.781 1386 760.106 1386 675.391C1386 590.675 1318.62 522 1235.5 522C1152.38 522 1085 590.675 1085 675.391C1085 760.106 1152.38 828.781 1235.5 828.781Z" fill="#8BC34A"/>
</g>
<mask id="mask1_7_6711" style="mask-type:luminance" maskUnits="userSpaceOnUse" x="1085" y="522" width="301" height="332">
<path d="M1386 675.391C1386 590.683 1318.61 522 1235.5 522C1152.39 522 1085 590.683 1085 675.391C1085 721.973 1105.4 763.671 1137.56 791.786L1119.5 823.655V848.964C1119.5 851.184 1121.28 853.001 1123.46 853.001C1124.19 853.001 1124.86 852.799 1125.46 852.456L1146.94 839.821L1163.72 810.233C1185.04 822.06 1209.5 828.781 1235.5 828.781C1261.5 828.781 1285.96 822.06 1307.3 810.233L1324.08 839.821L1345.56 852.456C1346.16 852.799 1346.83 853.001 1347.56 853.001C1349.74 853.001 1351.52 851.184 1351.52 848.964V823.655L1333.46 791.786C1365.6 763.671 1386 721.973 1386 675.391V675.391Z" fill="white"/>
</mask>
<g mask="url(#mask1_7_6711)">
<path d="M1235.5 826.763C1317.96 826.763 1384.89 759.17 1385.94 675.391H1386C1386 760.099 1318.61 828.781 1235.5 828.781C1152.39 828.781 1085 760.099 1085 675.391H1085.06C1086.11 759.17 1153.04 826.763 1235.5 826.763Z" fill="#263238" fill-opacity="0.2"/>
</g>
<mask id="mask2_7_6711" style="mask-type:luminance" maskUnits="userSpaceOnUse" x="1085" y="522" width="301" height="332">
<path d="M1386 675.391C1386 590.683 1318.61 522 1235.5 522C1152.39 522 1085 590.683 1085 675.391C1085 721.973 1105.4 763.671 1137.56 791.786L1119.5 823.655V848.964C1119.5 851.184 1121.28 853.001 1123.46 853.001C1124.19 853.001 1124.86 852.799 1125.46 852.456L1146.94 839.821L1163.72 810.233C1185.04 822.06 1209.5 828.781 1235.5 828.781C1261.5 828.781 1285.96 822.06 1307.3 810.233L1324.08 839.821L1345.56 852.456C1346.16 852.799 1346.83 853.001 1347.56 853.001C1349.74 853.001 1351.52 851.184 1351.52 848.964V823.655L1333.46 791.786C1365.6 763.671 1386 721.973 1386 675.391V675.391Z" fill="white"/>
</mask>
<g mask="url(#mask2_7_6711)">
<path d="M1235.5 522C1152.39 522 1085 590.683 1085 675.391H1386C1386 590.683 1318.61 522 1235.5 522Z" fill="#7CB342"/>
</g>
<mask id="mask3_7_6711" style="mask-type:luminance" maskUnits="userSpaceOnUse" x="1085" y="522" width="301" height="332">
<path d="M1386 675.391C1386 590.683 1318.61 522 1235.5 522C1152.39 522 1085 590.683 1085 675.391C1085 721.973 1105.4 763.671 1137.56 791.786L1119.5 823.655V848.964C1119.5 851.184 1121.28 853.001 1123.46 853.001C1124.19 853.001 1124.86 852.799 1125.46 852.456L1146.94 839.821L1163.72 810.233C1185.04 822.06 1209.5 828.781 1235.5 828.781C1261.5 828.781 1285.96 822.06 1307.3 810.233L1324.08 839.821L1345.56 852.456C1346.16 852.799 1346.83 853.001 1347.56 853.001C1349.74 853.001 1351.52 851.184 1351.52 848.964V823.655L1333.46 791.786C1365.6 763.671 1386 721.973 1386 675.391V675.391Z" fill="white"/>
</mask>
<g mask="url(#mask3_7_6711)">
<path d="M1235.5 671.354C1246.44 671.354 1255.3 662.318 1255.3 651.171C1255.3 640.024 1246.44 630.988 1235.5 630.988C1224.56 630.988 1215.7 640.024 1215.7 651.171C1215.7 662.318 1224.56 671.354 1235.5 671.354Z" fill="#7CB342"/>
</g>
<mask id="mask4_7_6711" style="mask-type:luminance" maskUnits="userSpaceOnUse" x="1085" y="522" width="301" height="332">
<path d="M1386 675.391C1386 590.683 1318.61 522 1235.5 522C1152.39 522 1085 590.683 1085 675.391C1085 721.973 1105.4 763.671 1137.56 791.786L1119.5 823.655V848.964C1119.5 851.184 1121.28 853.001 1123.46 853.001C1124.19 853.001 1124.86 852.799 1125.46 852.456L1146.94 839.821L1163.72 810.233C1185.04 822.06 1209.5 828.781 1235.5 828.781C1261.5 828.781 1285.96 822.06 1307.3 810.233L1324.08 839.821L1345.56 852.456C1346.16 852.799 1346.83 853.001 1347.56 853.001C1349.74 853.001 1351.52 851.184 1351.52 848.964V823.655L1333.46 791.786C1365.6 763.671 1386 721.973 1386 675.391V675.391Z" fill="white"/>
</mask>
<g mask="url(#mask4_7_6711)">
<path d="M1386 675.391H1085V673.372H1386V675.391Z" fill="#263238" fill-opacity="0.05"/>
</g>
<mask id="mask5_7_6711" style="mask-type:luminance" maskUnits="userSpaceOnUse" x="1085" y="522" width="301" height="332">
<path d="M1386 675.391C1386 590.683 1318.61 522 1235.5 522C1152.39 522 1085 590.683 1085 675.391C1085 721.973 1105.4 763.671 1137.56 791.786L1119.5 823.655V848.964C1119.5 851.184 1121.28 853.001 1123.46 853.001C1124.19 853.001 1124.86 852.799 1125.46 852.456L1146.94 839.821L1163.72 810.233C1185.04 822.06 1209.5 828.781 1235.5 828.781C1261.5 828.781 1285.96 822.06 1307.3 810.233L1324.08 839.821L1345.56 852.456C1346.16 852.799 1346.83 853.001 1347.56 853.001C1349.74 853.001 1351.52 851.184 1351.52 848.964V823.655L1333.46 791.786C1365.6 763.671 1386 721.973 1386 675.391V675.391Z" fill="white"/>
</mask>
<g mask="url(#mask5_7_6711)">
<path d="M1386 677.409H1085V675.391H1386V677.409Z" fill="white" fill-opacity="0.05"/>
</g>
<mask id="mask6_7_6711" style="mask-type:luminance" maskUnits="userSpaceOnUse" x="1085" y="522" width="301" height="332">
<path d="M1386 675.391C1386 590.683 1318.61 522 1235.5 522C1152.39 522 1085 590.683 1085 675.391C1085 721.973 1105.4 763.671 1137.56 791.786L1119.5 823.655V848.964C1119.5 851.184 1121.28 853.001 1123.46 853.001C1124.19 853.001 1124.86 852.799 1125.46 852.456L1146.94 839.821L1163.72 810.233C1185.04 822.06 1209.5 828.781 1235.5 828.781C1261.5 828.781 1285.96 822.06 1307.3 810.233L1324.08 839.821L1345.56 852.456C1346.16 852.799 1346.83 853.001 1347.56 853.001C1349.74 853.001 1351.52 851.184 1351.52 848.964V823.655L1333.46 791.786C1365.6 763.671 1386 721.973 1386 675.391V675.391Z" fill="white"/>
</mask>
<g mask="url(#mask6_7_6711)">
<path d="M1203.48 675.391L1123.46 853.001H1386V715.757L1251.34 578.512L1219.66 602.732L1203.48 675.391Z" fill="url(#paint0_linear_7_6711)"/>
</g>
<mask id="mask7_7_6711" style="mask-type:luminance" maskUnits="userSpaceOnUse" x="1085" y="522" width="301" height="332">
<path d="M1386 675.391C1386 590.683 1318.61 522 1235.5 522C1152.39 522 1085 590.683 1085 675.391C1085 721.973 1105.4 763.671 1137.56 791.786L1119.5 823.655V848.964C1119.5 851.184 1121.28 853.001 1123.46 853.001C1124.19 853.001 1124.86 852.799 1125.46 852.456L1146.94 839.821L1163.72 810.233C1185.04 822.06 1209.5 828.781 1235.5 828.781C1261.5 828.781 1285.96 822.06 1307.3 810.233L1324.08 839.821L1345.56 852.456C1346.16 852.799 1346.83 853.001 1347.56 853.001C1349.74 853.001 1351.52 851.184 1351.52 848.964V823.655L1333.46 791.786C1365.6 763.671 1386 721.973 1386 675.391V675.391Z" fill="white"/>
</mask>
<g mask="url(#mask7_7_6711)">
<path d="M1235.5 524.018C1317.96 524.018 1384.89 591.611 1385.94 675.391H1386C1386 590.683 1318.61 522 1235.5 522C1152.39 522 1085 590.683 1085 675.391H1085.06C1086.11 591.611 1153.04 524.018 1235.5 524.018Z" fill="white" fill-opacity="0.2"/>
</g>
<mask id="mask8_7_6711" style="mask-type:luminance" maskUnits="userSpaceOnUse" x="1085" y="522" width="301" height="332">
<path d="M1386 675.391C1386 590.683 1318.61 522 1235.5 522C1152.39 522 1085 590.683 1085 675.391C1085 721.973 1105.4 763.671 1137.56 791.786L1119.5 823.655V848.964C1119.5 851.184 1121.28 853.001 1123.46 853.001C1124.19 853.001 1124.86 852.799 1125.46 852.456L1146.94 839.821L1163.72 810.233C1185.04 822.06 1209.5 828.781 1235.5 828.781C1261.5 828.781 1285.96 822.06 1307.3 810.233L1324.08 839.821L1345.56 852.456C1346.16 852.799 1346.83 853.001 1347.56 853.001C1349.74 853.001 1351.52 851.184 1351.52 848.964V823.655L1333.46 791.786C1365.6 763.671 1386 721.973 1386 675.391V675.391Z" fill="white"/>
</mask>
<g mask="url(#mask8_7_6711)">
<path d="M1267.52 675.391H1230.93L1324.08 839.821L1345.56 852.456C1346.16 852.799 1346.83 853.001 1347.56 853.001C1349.74 853.001 1351.52 851.184 1351.52 848.964V823.655L1267.52 675.391Z" fill="#E1E1E1"/>
<path opacity="0.5" d="M1267.52 675.391H1230.93L1324.08 839.821L1345.56 852.456C1346.16 852.799 1346.83 853.001 1347.56 853.001C1349.74 853.001 1351.52 851.184 1351.52 848.964V823.655L1267.52 675.391Z" fill="#BDBDBD"/>
<path d="M1351.5 823.655L1267.52 675.391H1266.37L1351.5 825.673V823.655Z" fill="white" fill-opacity="0.2"/>
<path d="M1347.54 850.982C1346.81 850.982 1346.14 850.781 1345.54 850.438L1324.06 837.803L1232.07 675.391H1230.93L1324.08 839.821L1345.56 852.456C1346.16 852.799 1346.83 853.001 1347.56 853.001C1349.74 853.001 1351.52 851.184 1351.52 848.964V846.946C1351.5 849.166 1349.72 850.982 1347.54 850.982Z" fill="#212121" fill-opacity="0.1"/>
</g>
<mask id="mask9_7_6711" style="mask-type:luminance" maskUnits="userSpaceOnUse" x="1085" y="522" width="301" height="332">
<path d="M1386 675.391C1386 590.683 1318.61 522 1235.5 522C1152.39 522 1085 590.683 1085 675.391C1085 721.973 1105.4 763.671 1137.56 791.786L1119.5 823.655V848.964C1119.5 851.184 1121.28 853.001 1123.46 853.001C1124.19 853.001 1124.86 852.799 1125.46 852.456L1146.94 839.821L1163.72 810.233C1185.04 822.06 1209.5 828.781 1235.5 828.781C1261.5 828.781 1285.96 822.06 1307.3 810.233L1324.08 839.821L1345.56 852.456C1346.16 852.799 1346.83 853.001 1347.56 853.001C1349.74 853.001 1351.52 851.184 1351.52 848.964V823.655L1333.46 791.786C1365.6 763.671 1386 721.973 1386 675.391V675.391Z" fill="white"/>
</mask>
<g mask="url(#mask9_7_6711)">
<path d="M1314.71 675.391C1314.71 719.975 1279.24 756.123 1235.5 756.123C1222.49 756.123 1210.21 752.913 1199.38 747.242L1235.5 683.464L1240.07 675.391H1203.48L1119.48 823.655V848.964C1119.48 851.184 1121.26 853.001 1123.44 853.001C1124.17 853.001 1124.84 852.799 1125.44 852.456L1146.92 839.821L1183.52 775.236C1199.02 783.632 1216.71 788.415 1235.5 788.415C1296.75 788.415 1346.39 737.817 1346.39 675.391H1314.71Z" fill="#EEEEEE"/>
<path d="M1203.48 675.391L1119.48 823.655V825.673L1204.63 675.391H1203.48ZM1235.5 756.123C1222.49 756.123 1210.21 752.913 1199.38 747.242V749.26C1210.21 754.932 1222.49 758.141 1235.5 758.141C1279.24 758.141 1314.71 721.993 1314.71 677.409H1346.34C1346.36 676.743 1346.39 676.077 1346.39 675.391H1314.71C1314.71 719.975 1279.24 756.123 1235.5 756.123Z" fill="white" fill-opacity="0.4"/>
<path d="M1240.07 675.391H1238.93L1199.36 745.224V747.242L1240.07 675.391ZM1346.34 675.391C1345.27 736.868 1296.08 786.397 1235.5 786.397C1216.71 786.397 1199.02 781.614 1183.52 773.218L1146.92 837.803L1125.44 850.438C1124.84 850.781 1124.17 850.982 1123.44 850.982C1121.26 850.982 1119.48 849.166 1119.48 846.946V848.964C1119.48 851.184 1121.26 853.001 1123.44 853.001C1124.17 853.001 1124.84 852.799 1125.44 852.456L1146.92 839.821L1183.52 775.236C1199.02 783.632 1216.71 788.415 1235.5 788.415C1296.75 788.415 1346.39 737.817 1346.39 675.391H1346.34Z" fill="#212121" fill-opacity="0.1"/>
</g>
<mask id="mask10_7_6711" style="mask-type:luminance" maskUnits="userSpaceOnUse" x="1085" y="522" width="301" height="332">
<path d="M1386 675.391C1386 590.683 1318.61 522 1235.5 522C1152.39 522 1085 590.683 1085 675.391C1085 721.973 1105.4 763.671 1137.56 791.786L1119.5 823.655V848.964C1119.5 851.184 1121.28 853.001 1123.46 853.001C1124.19 853.001 1124.86 852.799 1125.46 852.456L1146.94 839.821L1163.72 810.233C1185.04 822.06 1209.5 828.781 1235.5 828.781C1261.5 828.781 1285.96 822.06 1307.3 810.233L1324.08 839.821L1345.56 852.456C1346.16 852.799 1346.83 853.001 1347.56 853.001C1349.74 853.001 1351.52 851.184 1351.52 848.964V823.655L1333.46 791.786C1365.6 763.671 1386 721.973 1386 675.391V675.391Z" fill="white"/>
</mask>
<g mask="url(#mask10_7_6711)">
<path d="M1271.14 602.732H1251.34V578.512H1219.66V602.732H1199.86C1193.32 602.732 1187.97 608.181 1187.97 614.842V675.391L1227.1 715.232C1229.26 717.412 1232.21 718.784 1235.5 718.784C1238.79 718.784 1241.76 717.432 1243.9 715.232L1283.03 675.391V614.842C1283.03 608.181 1277.68 602.732 1271.14 602.732ZM1235.5 671.354C1224.57 671.354 1215.7 662.312 1215.7 651.171C1215.7 640.03 1224.57 630.988 1235.5 630.988C1246.43 630.988 1255.3 640.03 1255.3 651.171C1255.3 662.312 1246.43 671.354 1235.5 671.354Z" fill="#646464"/>
</g>
<mask id="mask11_7_6711" style="mask-type:luminance" maskUnits="userSpaceOnUse" x="1085" y="522" width="301" height="332">
<path d="M1386 675.391C1386 590.683 1318.61 522 1235.5 522C1152.39 522 1085 590.683 1085 675.391C1085 721.973 1105.4 763.671 1137.56 791.786L1119.5 823.655V848.964C1119.5 851.184 1121.28 853.001 1123.46 853.001C1124.19 853.001 1124.86 852.799 1125.46 852.456L1146.94 839.821L1163.72 810.233C1185.04 822.06 1209.5 828.781 1235.5 828.781C1261.5 828.781 1285.96 822.06 1307.3 810.233L1324.08 839.821L1345.56 852.456C1346.16 852.799 1346.83 853.001 1347.56 853.001C1349.74 853.001 1351.52 851.184 1351.52 848.964V823.655L1333.46 791.786C1365.6 763.671 1386 721.973 1386 675.391V675.391Z" fill="white"/>
</mask>
<g mask="url(#mask11_7_6711)">
<path d="M1271.14 602.732H1251.34V604.75H1271.14C1277.68 604.75 1283.03 610.2 1283.03 616.86V614.842C1283.03 608.181 1277.68 602.732 1271.14 602.732ZM1251.34 578.512H1219.66V580.531H1251.34V578.512ZM1219.66 602.732H1199.86C1193.32 602.732 1187.97 608.181 1187.97 614.842V616.86C1187.97 610.2 1193.32 604.75 1199.86 604.75H1219.66V602.732ZM1235.5 671.354C1224.57 671.354 1215.7 662.312 1215.7 651.171V653.189C1215.7 664.33 1224.57 673.372 1235.5 673.372C1246.43 673.372 1255.3 664.33 1255.3 653.189V651.171C1255.3 662.312 1246.43 671.354 1235.5 671.354Z" fill="white" fill-opacity="0.1"/>
</g>
<mask id="mask12_7_6711" style="mask-type:luminance" maskUnits="userSpaceOnUse" x="1085" y="522" width="301" height="332">
<path d="M1386 675.391C1386 590.683 1318.61 522 1235.5 522C1152.39 522 1085 590.683 1085 675.391C1085 721.973 1105.4 763.671 1137.56 791.786L1119.5 823.655V848.964C1119.5 851.184 1121.28 853.001 1123.46 853.001C1124.19 853.001 1124.86 852.799 1125.46 852.456L1146.94 839.821L1163.72 810.233C1185.04 822.06 1209.5 828.781 1235.5 828.781C1261.5 828.781 1285.96 822.06 1307.3 810.233L1324.08 839.821L1345.56 852.456C1346.16 852.799 1346.83 853.001 1347.56 853.001C1349.74 853.001 1351.52 851.184 1351.52 848.964V823.655L1333.46 791.786C1365.6 763.671 1386 721.973 1386 675.391V675.391Z" fill="white"/>
</mask>
<g mask="url(#mask12_7_6711)">
<path d="M1235.5 630.988C1246.43 630.988 1255.3 640.03 1255.3 651.171V649.153C1255.3 638.012 1246.43 628.97 1235.5 628.97C1224.57 628.97 1215.7 638.012 1215.7 649.153V651.171C1215.7 640.03 1224.57 630.988 1235.5 630.988ZM1243.9 713.213C1241.74 715.393 1238.79 716.766 1235.5 716.766C1232.21 716.766 1229.24 715.413 1227.1 713.213L1187.97 673.372V675.391L1227.1 715.232C1229.26 717.412 1232.21 718.784 1235.5 718.784C1238.79 718.784 1241.76 717.432 1243.9 715.232L1283.03 675.391V673.372L1243.9 713.213Z" fill="#212121" fill-opacity="0.1"/>
</g>
<path d="M1386 675.391C1386 590.683 1318.61 522 1235.5 522C1152.39 522 1085 590.683 1085 675.391C1085 721.973 1105.4 763.671 1137.56 791.786L1119.5 823.655V848.964C1119.5 851.184 1121.28 853.001 1123.46 853.001C1124.19 853.001 1124.86 852.799 1125.46 852.456L1146.94 839.821L1163.72 810.233C1185.04 822.06 1209.5 828.781 1235.5 828.781C1261.5 828.781 1285.96 822.06 1307.3 810.233L1324.08 839.821L1345.56 852.456C1346.16 852.799 1346.83 853.001 1347.56 853.001C1349.74 853.001 1351.52 851.184 1351.52 848.964V823.655L1333.46 791.786C1365.6 763.671 1386 721.973 1386 675.391Z" fill="url(#paint1_radial_7_6711)"/>
</g>
<rect width="1512" height="70" fill="white" fill-opacity="0.04"/>
<path fill-rule="evenodd" clip-rule="evenodd" d="M1305.16 31.8571C1305.16 23.6518 1298.23 17 1289.68 17C1281.14 17 1274.21 23.6518 1274.21 31.8571C1274.21 40.0625 1281.14 46.7143 1289.68 46.7143C1293.21 46.7143 1296.46 45.5833 1299.06 43.6818L1310.24 54.4142C1311.05 55.1953 1312.37 55.1953 1313.18 54.4142C1314 53.6332 1314 52.3668 1313.18 51.5858L1302 40.8533C1303.98 38.3571 1305.16 35.2379 1305.16 31.8571ZM1289.68 21C1295.93 21 1300.99 25.8609 1300.99 31.8571C1300.99 34.8558 1299.73 37.5674 1297.68 39.5343C1295.63 41.5012 1292.81 42.7143 1289.68 42.7143C1283.44 42.7143 1278.38 37.8534 1278.38 31.8571C1278.38 25.8609 1283.44 21 1289.68 21Z" fill="white"/>
<path fill-rule="evenodd" clip-rule="evenodd" d="M1437.26 21.7418C1434.82 19.301 1430.86 19.301 1428.42 21.7418L1421.79 28.3709C1419.35 30.8117 1419.35 34.7689 1421.79 37.2097C1422.6 38.0233 1422.6 39.3424 1421.79 40.156C1420.98 40.9696 1419.66 40.9696 1418.84 40.156C1414.78 36.088 1414.78 29.4926 1418.84 25.4246L1425.47 18.7955C1429.54 14.7275 1436.14 14.7275 1440.2 18.7955C1444.27 22.8634 1444.27 29.4589 1440.2 33.5269C1439.39 34.3405 1438.07 34.3405 1437.26 33.5269C1436.44 32.7133 1436.44 31.3942 1437.26 30.5806C1439.7 28.1398 1439.7 24.1825 1437.26 21.7418ZM1426.21 29.844C1427.02 29.0304 1428.34 29.0304 1429.16 29.844C1433.22 33.912 1433.22 40.5075 1429.16 44.5754L1422.53 51.2045C1418.46 55.2725 1411.86 55.2725 1407.8 51.2045C1403.73 47.1366 1403.73 40.5411 1407.8 36.4731C1408.61 35.6596 1409.93 35.6596 1410.74 36.4731C1411.56 37.2867 1411.56 38.6058 1410.74 39.4194C1408.3 41.8602 1408.3 45.8175 1410.74 48.2583C1413.18 50.699 1417.14 50.699 1419.58 48.2583L1426.21 41.6291C1428.65 39.1884 1428.65 35.2311 1426.21 32.7903C1425.4 31.9767 1425.4 30.6576 1426.21 29.844Z" fill="white"/>
<rect x="871" y="17" width="374" height="39" rx="19.5" fill="white" fill-opacity="0.03"/>
<rect x="871.5" y="17.5" width="373" height="38" rx="19" stroke="white" stroke-opacity="0.11"/>
<path d="M1424.67 91.904H1433.41V143.552C1433.41 149.184 1430.4 152 1424.38 152H1413.73C1407.71 152 1404.7 149.184 1404.7 143.552V91.904H1413.44V142.208C1413.44 143.36 1413.63 144.128 1414.02 144.512C1414.4 144.832 1415.17 144.992 1416.32 144.992H1421.79C1423.01 144.992 1423.78 144.832 1424.1 144.512C1424.48 144.128 1424.67 143.36 1424.67 142.208V91.904ZM1443.15 91.904H1462.83C1468.78 91.904 1471.76 94.72 1471.76 100.352V120.32C1471.76 125.952 1468.78 128.768 1462.83 128.768H1451.79V152H1443.15V91.904ZM1463.12 118.976V101.696C1463.12 100.544 1462.92 99.808 1462.54 99.488C1462.16 99.104 1461.39 98.912 1460.24 98.912H1451.79V121.856H1460.24C1461.39 121.856 1462.16 121.664 1462.54 121.28C1462.92 120.896 1463.12 120.128 1463.12 118.976Z" fill="white"/>
<path d="M399.768 218.904H408.504L398.904 279H386.904L380.184 233.88L373.56 279H361.56L351.96 218.904H360.888L367.608 271.128L375.384 218.904H384.984L392.76 271.128L399.768 218.904ZM422.46 232.152H431.868C437.884 232.152 440.892 235 440.892 240.696V258.264H421.98V269.4C421.98 270.488 422.172 271.224 422.556 271.608C422.94 271.992 423.708 272.184 424.86 272.184H429.276C430.428 272.184 431.196 271.992 431.58 271.608C431.964 271.224 432.156 270.456 432.156 269.304V265.464H440.604V270.552C440.604 276.184 437.628 279 431.676 279H422.46C416.508 279 413.532 276.184 413.532 270.552V240.696C413.532 235 416.508 232.152 422.46 232.152ZM421.98 251.928H432.348V241.752C432.348 240.664 432.156 239.928 431.772 239.544C431.452 239.16 430.716 238.968 429.564 238.968H424.86C423.708 238.968 422.94 239.16 422.556 239.544C422.172 239.928 421.98 240.664 421.98 241.752V251.928ZM456.958 279H448.318V214.776H456.958V279ZM491.876 246.936H483.332V241.944C483.332 240.792 483.14 240.056 482.756 239.736C482.372 239.352 481.604 239.16 480.452 239.16H476.324C475.172 239.16 474.404 239.352 474.02 239.736C473.636 240.056 473.444 240.792 473.444 241.944V269.208C473.444 270.36 473.636 271.128 474.02 271.512C474.404 271.832 475.172 271.992 476.324 271.992H480.452C481.604 271.992 482.372 271.832 482.756 271.512C483.14 271.128 483.332 270.36 483.332 269.208V264.216H491.876V270.552C491.876 276.184 488.868 279 482.852 279H473.732C467.78 279 464.804 276.184 464.804 270.552V240.696C464.804 235 467.78 232.152 473.732 232.152H482.852C488.868 232.152 491.876 235 491.876 240.696V246.936ZM507.389 232.152H517.661C523.613 232.152 526.589 235 526.589 240.696V270.552C526.589 276.184 523.613 279 517.661 279H507.389C501.501 279 498.557 276.184 498.557 270.552V240.696C498.557 235 501.501 232.152 507.389 232.152ZM518.045 269.304V241.848C518.045 240.696 517.853 239.928 517.469 239.544C517.085 239.16 516.317 238.968 515.165 238.968H509.885C508.733 238.968 507.965 239.16 507.581 239.544C507.261 239.928 507.101 240.696 507.101 241.848V269.304C507.101 270.456 507.261 271.224 507.581 271.608C507.965 271.992 508.733 272.184 509.885 272.184H515.165C516.317 272.184 517.085 271.992 517.469 271.608C517.853 271.224 518.045 270.456 518.045 269.304ZM567.208 232.152H570.568C576.328 232.152 579.208 235 579.208 240.696V279H570.568V241.944C570.568 240.792 570.376 240.056 569.992 239.736C569.672 239.352 568.936 239.16 567.784 239.16H564.328C562.28 239.16 561.256 240.28 561.256 242.52V279H552.616V241.944C552.616 240.792 552.424 240.056 552.04 239.736C551.656 239.352 550.888 239.16 549.736 239.16H546.376C545.224 239.16 544.392 239.416 543.88 239.928C543.432 240.44 543.208 241.304 543.208 242.52V279H534.568V232.152H543.208V235.896C544.04 233.4 546.024 232.152 549.16 232.152H552.52C556.616 232.152 559.272 233.592 560.488 236.472C561.256 233.592 563.496 232.152 567.208 232.152ZM595.898 232.152H605.306C611.322 232.152 614.33 235 614.33 240.696V258.264H595.418V269.4C595.418 270.488 595.61 271.224 595.994 271.608C596.378 271.992 597.146 272.184 598.298 272.184H602.714C603.866 272.184 604.634 271.992 605.018 271.608C605.402 271.224 605.594 270.456 605.594 269.304V265.464H614.042V270.552C614.042 276.184 611.066 279 605.114 279H595.898C589.946 279 586.97 276.184 586.97 270.552V240.696C586.97 235 589.946 232.152 595.898 232.152ZM595.418 251.928H605.786V241.752C605.786 240.664 605.594 239.928 605.21 239.544C604.89 239.16 604.154 238.968 603.002 238.968H598.298C597.146 238.968 596.378 239.16 595.994 239.544C595.61 239.928 595.418 240.664 595.418 241.752V251.928ZM651.47 239.16H645.038V268.824C645.038 269.976 645.198 270.744 645.518 271.128C645.902 271.448 646.67 271.608 647.822 271.608H651.47V279H645.326C639.31 279 636.302 276.184 636.302 270.552V239.16H631.886V232.152H636.302V224.184H645.038V232.152H651.47V239.16ZM664.982 232.152H675.254C681.206 232.152 684.182 235 684.182 240.696V270.552C684.182 276.184 681.206 279 675.254 279H664.982C659.094 279 656.15 276.184 656.15 270.552V240.696C656.15 235 659.094 232.152 664.982 232.152ZM675.638 269.304V241.848C675.638 240.696 675.446 239.928 675.062 239.544C674.678 239.16 673.91 238.968 672.758 238.968H667.478C666.326 238.968 665.558 239.16 665.174 239.544C664.854 239.928 664.694 240.696 664.694 241.848V269.304C664.694 270.456 664.854 271.224 665.174 271.608C665.558 271.992 666.326 272.184 667.478 272.184H672.758C673.91 272.184 674.678 271.992 675.062 271.608C675.446 271.224 675.638 270.456 675.638 269.304ZM719.381 218.904V279H710.645V225.912H703.733V218.904H719.381ZM748.598 269.208V228.696C748.598 227.544 748.406 226.808 748.022 226.488C747.638 226.104 746.87 225.912 745.718 225.912H740.534C739.382 225.912 738.614 226.104 738.23 226.488C737.91 226.808 737.75 227.544 737.75 228.696V269.208C737.75 270.36 737.91 271.128 738.23 271.512C738.614 271.832 739.382 271.992 740.534 271.992H745.718C746.87 271.992 747.638 271.832 748.022 271.512C748.406 271.128 748.598 270.36 748.598 269.208ZM757.334 227.352V270.552C757.334 276.184 754.358 279 748.406 279H737.942C731.926 279 728.918 276.184 728.918 270.552V227.352C728.918 221.72 731.926 218.904 737.942 218.904H748.406C754.358 218.904 757.334 221.72 757.334 227.352ZM786.005 269.208V228.696C786.005 227.544 785.813 226.808 785.429 226.488C785.045 226.104 784.277 225.912 783.125 225.912H777.941C776.789 225.912 776.021 226.104 775.637 226.488C775.317 226.808 775.157 227.544 775.157 228.696V269.208C775.157 270.36 775.317 271.128 775.637 271.512C776.021 271.832 776.789 271.992 777.941 271.992H783.125C784.277 271.992 785.045 271.832 785.429 271.512C785.813 271.128 786.005 270.36 786.005 269.208ZM794.741 227.352V270.552C794.741 276.184 791.765 279 785.812 279H775.349C769.333 279 766.325 276.184 766.325 270.552V227.352C766.325 221.72 769.333 218.904 775.349 218.904H785.812C791.765 218.904 794.741 221.72 794.741 227.352ZM812.371 244.44H822.931C828.883 244.44 831.859 247.288 831.859 252.984V270.552C831.859 276.184 828.883 279 822.931 279H812.755C806.739 279 803.731 276.184 803.731 270.552V227.352C803.731 221.72 806.739 218.904 812.755 218.904H822.643C828.595 218.904 831.571 221.72 831.571 227.352V237.72H823.027V228.696C823.027 227.544 822.835 226.808 822.451 226.488C822.067 226.104 821.299 225.912 820.147 225.912H815.251C814.099 225.912 813.331 226.104 812.947 226.488C812.563 226.808 812.371 227.544 812.371 228.696V244.44ZM823.219 269.208V254.136C823.219 253.048 823.027 252.312 822.643 251.928C822.259 251.544 821.491 251.352 820.339 251.352H812.371V269.208C812.371 270.36 812.563 271.128 812.947 271.512C813.331 271.832 814.099 271.992 815.251 271.992H820.339C821.491 271.992 822.259 271.832 822.643 271.512C823.027 271.128 823.219 270.36 823.219 269.208ZM848.739 279H840.099V214.776H848.739V279ZM865.898 232.152H875.306C881.322 232.152 884.33 235 884.33 240.696V258.264H865.418V269.4C865.418 270.488 865.61 271.224 865.994 271.608C866.378 271.992 867.146 272.184 868.298 272.184H872.714C873.866 272.184 874.634 271.992 875.018 271.608C875.402 271.224 875.594 270.456 875.594 269.304V265.464H884.042V270.552C884.042 276.184 881.066 279 875.114 279H865.898C859.946 279 856.97 276.184 856.97 270.552V240.696C856.97 235 859.946 232.152 865.898 232.152ZM865.418 251.928H875.786V241.752C875.786 240.664 875.594 239.928 875.21 239.544C874.89 239.16 874.154 238.968 873.002 238.968H868.298C867.146 238.968 866.378 239.16 865.994 239.544C865.61 239.928 865.418 240.664 865.418 241.752V251.928ZM924.395 232.152H927.755C933.515 232.152 936.395 235 936.395 240.696V279H927.755V241.944C927.755 240.792 927.563 240.056 927.179 239.736C926.859 239.352 926.123 239.16 924.971 239.16H921.515C919.467 239.16 918.443 240.28 918.443 242.52V279H909.803V241.944C909.803 240.792 909.611 240.056 909.227 239.736C908.843 239.352 908.075 239.16 906.923 239.16H903.563C902.411 239.16 901.579 239.416 901.067 239.928C900.619 240.44 900.395 241.304 900.395 242.52V279H891.755V232.152H900.395V235.896C901.227 233.4 903.211 232.152 906.347 232.152H909.707C913.803 232.152 916.459 233.592 917.675 236.472C918.443 233.592 920.683 232.152 924.395 232.152ZM943.197 218.904H952.893V225.144L946.173 244.056H943.197V218.904ZM975.935 269.592V261.816C975.935 260.664 975.743 259.928 975.359 259.608C974.975 259.224 974.207 259.032 973.055 259.032H968.159C962.207 259.032 959.23 256.216 959.23 250.584V240.696C959.23 235 962.207 232.152 968.159 232.152H975.167C981.183 232.152 984.191 235 984.191 240.696V245.208H975.743V241.56C975.743 240.408 975.551 239.672 975.167 239.352C974.783 238.968 974.015 238.776 972.863 238.776H970.559C969.407 238.776 968.639 238.968 968.255 239.352C967.871 239.672 967.679 240.408 967.679 241.56V249.624C967.679 250.776 967.871 251.544 968.255 251.928C968.639 252.248 969.407 252.408 970.559 252.408H975.551C981.439 252.408 984.383 255.256 984.383 260.952V270.552C984.383 276.184 981.407 279 975.455 279H968.351C962.399 279 959.423 276.184 959.423 270.552V265.944H967.871V269.592C967.871 270.744 968.063 271.512 968.447 271.896C968.831 272.216 969.599 272.376 970.751 272.376H973.055C974.207 272.376 974.975 272.216 975.359 271.896C975.743 271.512 975.935 270.744 975.935 269.592ZM1027.55 242.232V228.504C1027.55 227.352 1027.36 226.616 1026.97 226.296C1026.59 225.912 1025.82 225.72 1024.67 225.72H1015.07V245.016H1024.67C1025.82 245.016 1026.59 244.856 1026.97 244.536C1027.36 244.152 1027.55 243.384 1027.55 242.232ZM1027.55 269.4V254.616C1027.55 253.464 1027.36 252.728 1026.97 252.408C1026.59 252.024 1025.82 251.832 1024.67 251.832H1015.07V272.184H1024.67C1025.82 272.184 1026.59 272.024 1026.97 271.704C1027.36 271.32 1027.55 270.552 1027.55 269.4ZM1006.43 218.904H1027.26C1033.28 218.904 1036.29 221.72 1036.29 227.352V242.616C1036.29 246.008 1035.01 247.992 1032.45 248.568C1035.01 249.208 1036.29 251.064 1036.29 254.136V270.552C1036.29 276.184 1033.28 279 1027.26 279H1006.43V218.904ZM1053.58 279H1044.94V214.776H1053.58V279ZM1070.36 232.152H1080.63C1086.58 232.152 1089.56 235 1089.56 240.696V270.552C1089.56 276.184 1086.58 279 1080.63 279H1070.36C1064.47 279 1061.53 276.184 1061.53 270.552V240.696C1061.53 235 1064.47 232.152 1070.36 232.152ZM1081.01 269.304V241.848C1081.01 240.696 1080.82 239.928 1080.44 239.544C1080.05 239.16 1079.29 238.968 1078.13 238.968H1072.85C1071.7 238.968 1070.93 239.16 1070.55 239.544C1070.23 239.928 1070.07 240.696 1070.07 241.848V269.304C1070.07 270.456 1070.23 271.224 1070.55 271.608C1070.93 271.992 1071.7 272.184 1072.85 272.184H1078.13C1079.29 272.184 1080.05 271.992 1080.44 271.608C1080.82 271.224 1081.01 270.456 1081.01 269.304ZM1115.01 232.152H1123.65V283.8C1123.65 289.432 1120.64 292.248 1114.62 292.248H1098.59V285.432H1112.13C1113.28 285.432 1114.05 285.24 1114.43 284.856C1114.82 284.472 1115.01 283.736 1115.01 282.648V274.68C1114.18 277.176 1112.19 278.424 1109.06 278.424H1105.6C1099.84 278.424 1096.96 275.576 1096.96 269.88V240.696C1096.96 235 1099.84 232.152 1105.6 232.152H1109.06C1112.19 232.152 1114.18 233.4 1115.01 235.896V232.152ZM1108.48 271.416H1111.84C1112.99 271.416 1113.79 271.16 1114.24 270.648C1114.75 270.136 1115.01 269.272 1115.01 268.056V242.52C1115.01 241.304 1114.75 240.44 1114.24 239.928C1113.79 239.416 1112.99 239.16 1111.84 239.16H1108.48C1107.33 239.16 1106.56 239.352 1106.18 239.736C1105.79 240.056 1105.6 240.792 1105.6 241.944V268.632C1105.6 269.72 1105.79 270.456 1106.18 270.84C1106.56 271.224 1107.33 271.416 1108.48 271.416ZM1132.99 279V267.192H1142.69V279H1132.99ZM1132.71 218.904H1143.17L1141.54 259.416H1134.34L1132.71 218.904Z" fill="white"/>
<path d="M660.588 318.464V341H657.312V321.092H654.72V318.464H660.588ZM671.545 337.328V322.136C671.545 321.704 671.473 321.428 671.329 321.308C671.185 321.164 670.897 321.092 670.465 321.092H668.521C668.089 321.092 667.801 321.164 667.657 321.308C667.537 321.428 667.477 321.704 667.477 322.136V337.328C667.477 337.76 667.537 338.048 667.657 338.192C667.801 338.312 668.089 338.372 668.521 338.372H670.465C670.897 338.372 671.185 338.312 671.329 338.192C671.473 338.048 671.545 337.76 671.545 337.328ZM674.821 321.632V337.832C674.821 339.944 673.705 341 671.473 341H667.549C665.293 341 664.165 339.944 664.165 337.832V321.632C664.165 319.52 665.293 318.464 667.549 318.464H671.473C673.705 318.464 674.821 319.52 674.821 321.632ZM685.572 337.328V322.136C685.572 321.704 685.5 321.428 685.356 321.308C685.212 321.164 684.924 321.092 684.492 321.092H682.548C682.116 321.092 681.828 321.164 681.684 321.308C681.564 321.428 681.504 321.704 681.504 322.136V337.328C681.504 337.76 681.564 338.048 681.684 338.192C681.828 338.312 682.116 338.372 682.548 338.372H684.492C684.924 338.372 685.212 338.312 685.356 338.192C685.5 338.048 685.572 337.76 685.572 337.328ZM688.848 321.632V337.832C688.848 339.944 687.732 341 685.5 341H681.576C679.32 341 678.192 339.944 678.192 337.832V321.632C678.192 319.52 679.32 318.464 681.576 318.464H685.5C687.732 318.464 688.848 319.52 688.848 321.632ZM695.459 328.04H699.419C701.651 328.04 702.767 329.108 702.767 331.244V337.832C702.767 339.944 701.651 341 699.419 341H695.603C693.347 341 692.219 339.944 692.219 337.832V321.632C692.219 319.52 693.347 318.464 695.603 318.464H699.311C701.543 318.464 702.659 319.52 702.659 321.632V325.52H699.455V322.136C699.455 321.704 699.383 321.428 699.239 321.308C699.095 321.164 698.807 321.092 698.375 321.092H696.539C696.107 321.092 695.819 321.164 695.675 321.308C695.531 321.428 695.459 321.704 695.459 322.136V328.04ZM699.527 337.328V331.676C699.527 331.268 699.455 330.992 699.311 330.848C699.167 330.704 698.879 330.632 698.447 330.632H695.459V337.328C695.459 337.76 695.531 338.048 695.675 338.192C695.819 338.312 696.107 338.372 696.539 338.372H698.447C698.879 338.372 699.167 338.312 699.311 338.192C699.455 338.048 699.527 337.76 699.527 337.328ZM709.097 341H705.857V316.916H709.097V341ZM715.532 323.432H719.06C721.316 323.432 722.444 324.5 722.444 326.636V333.224H715.352V337.4C715.352 337.808 715.424 338.084 715.568 338.228C715.712 338.372 716 338.444 716.432 338.444H718.088C718.52 338.444 718.808 338.372 718.952 338.228C719.096 338.084 719.168 337.796 719.168 337.364V335.924H722.336V337.832C722.336 339.944 721.22 341 718.988 341H715.532C713.3 341 712.184 339.944 712.184 337.832V326.636C712.184 324.5 713.3 323.432 715.532 323.432ZM715.352 330.848H719.24V327.032C719.24 326.624 719.168 326.348 719.024 326.204C718.904 326.06 718.628 325.988 718.196 325.988H716.432C716 325.988 715.712 326.06 715.568 326.204C715.424 326.348 715.352 326.624 715.352 327.032V330.848ZM737.469 323.432H738.729C740.889 323.432 741.969 324.5 741.969 326.636V341H738.729V327.104C738.729 326.672 738.657 326.396 738.513 326.276C738.393 326.132 738.117 326.06 737.685 326.06H736.389C735.621 326.06 735.237 326.48 735.237 327.32V341H731.997V327.104C731.997 326.672 731.925 326.396 731.781 326.276C731.637 326.132 731.349 326.06 730.917 326.06H729.657C729.225 326.06 728.913 326.156 728.721 326.348C728.553 326.54 728.469 326.864 728.469 327.32V341H725.229V323.432H728.469V324.836C728.781 323.9 729.525 323.432 730.701 323.432H731.961C733.497 323.432 734.493 323.972 734.949 325.052C735.237 323.972 736.077 323.432 737.469 323.432ZM750.514 314.252H753.646V345.248H750.514V314.252ZM769.011 323.432H772.251V342.8C772.251 344.912 771.123 345.968 768.867 345.968H762.855V343.412H767.931C768.363 343.412 768.651 343.34 768.795 343.196C768.939 343.052 769.011 342.776 769.011 342.368V339.38C768.699 340.316 767.955 340.784 766.779 340.784H765.483C763.323 340.784 762.243 339.716 762.243 337.58V326.636C762.243 324.5 763.323 323.432 765.483 323.432H766.779C767.955 323.432 768.699 323.9 769.011 324.836V323.432ZM766.563 338.156H767.823C768.255 338.156 768.555 338.06 768.723 337.868C768.915 337.676 769.011 337.352 769.011 336.896V327.32C769.011 326.864 768.915 326.54 768.723 326.348C768.555 326.156 768.255 326.06 767.823 326.06H766.563C766.131 326.06 765.843 326.132 765.699 326.276C765.555 326.396 765.483 326.672 765.483 327.104V337.112C765.483 337.52 765.555 337.796 765.699 337.94C765.843 338.084 766.131 338.156 766.563 338.156ZM775.36 320.084V316.88H778.744V320.084H775.36ZM778.672 341H775.432V323.432H778.672V341ZM787.77 326.06H785.358V337.184C785.358 337.616 785.418 337.904 785.538 338.048C785.682 338.168 785.97 338.228 786.402 338.228H787.77V341H785.466C783.21 341 782.082 339.944 782.082 337.832V326.06H780.426V323.432H782.082V320.444H785.358V323.432H787.77V326.06ZM795.177 323.432H796.437C798.621 323.432 799.713 324.5 799.713 326.636V341H796.473V327.104C796.473 326.672 796.401 326.396 796.257 326.276C796.113 326.132 795.825 326.06 795.393 326.06H794.133C793.701 326.06 793.389 326.156 793.197 326.348C793.029 326.54 792.945 326.864 792.945 327.32V341H789.705V316.916H792.945V324.836C793.257 323.9 794.001 323.432 795.177 323.432ZM809.586 323.432H812.826V341H809.586V339.596C809.274 340.532 808.53 341 807.354 341H806.058C803.898 341 802.818 339.944 802.818 337.832V323.432H806.058V337.328C806.058 337.76 806.13 338.048 806.274 338.192C806.418 338.312 806.706 338.372 807.138 338.372H808.398C808.83 338.372 809.13 338.276 809.298 338.084C809.49 337.892 809.586 337.568 809.586 337.112V323.432ZM821.474 323.396H822.734C824.918 323.396 826.01 324.464 826.01 326.6V337.832C826.01 339.944 824.918 341 822.734 341H821.474C820.298 341 819.554 340.532 819.242 339.596V341H816.002V316.916H819.242V324.8C819.554 323.864 820.298 323.396 821.474 323.396ZM822.77 337.328V327.068C822.77 326.66 822.698 326.384 822.554 326.24C822.41 326.096 822.122 326.024 821.69 326.024H820.43C819.998 326.024 819.686 326.12 819.494 326.312C819.326 326.504 819.242 326.828 819.242 327.284V337.112C819.242 337.568 819.326 337.892 819.494 338.084C819.686 338.276 819.998 338.372 820.43 338.372H821.69C822.122 338.372 822.41 338.312 822.554 338.192C822.698 338.048 822.77 337.76 822.77 337.328Z" fill="#FFFA78"/>
<defs>
<linearGradient id="paint0_linear_7_6711" x1="1200.57" y1="721.656" x2="1343.91" y2="800.403" gradientUnits="userSpaceOnUse">
<stop stop-color="#263238" stop-opacity="0.2"/>
<stop offset="1" stop-color="#263238" stop-opacity="0.02"/>
</linearGradient>
<radialGradient id="paint1_radial_7_6711" cx="0" cy="0" r="1" gradientUnits="userSpaceOnUse" gradientTransform="translate(1129.27 566.788) scale(356.693 392.245)">
<stop stop-color="white" stop-opacity="0.1"/>
<stop offset="1" stop-color="white" stop-opacity="0"/>
</radialGradient>
<clipPath id="clip0_7_6711">
<rect width="301" height="331" fill="white" transform="translate(1085 522)"/>
</clipPath>
</defs>
</svg>
